<?xml version="1.0" encoding="UTF-8"?>
<svg id="Layer_2" data-name="Layer 2" xmlns="http://www.w3.org/2000/svg" viewBox="0 0 35.89 64.86">
  <defs>
    <style>
      .cls-1 {
        stroke-width: 0px;
      }
    </style>
  </defs>
  <g id="Layer_1-2" data-name="Layer 1">
    <path class="cls-1" d="m0,17.68c.03-.1.06-.2.11-.29.47-.91.94-1.82,1.4-2.74.11-.22.27-.32.51-.37,2.05-.49,4.09-.99,6.13-1.51,1.32-.34,2.62-.71,3.94-1.05.24-.06.29-.15.18-.37-.3-.61-.6-1.22-.89-1.83-.1-.22-.28-.22-.47-.22-1.3.01-2.41-.46-3.29-1.39-2.24-2.35-1.47-6.21,1.51-7.49,1.61-.69,3.19-.52,4.58.58,1.4,1.11,1.98,2.6,1.69,4.39-.12.74-.4,1.41-.85,2.01-.16.21-.21.39-.09.66.33.75.63,1.53.9,2.3.11.31.24.37.54.28,1.75-.53,3.5-1.05,5.25-1.58,1.42-.43,2.84-.85,4.24-1.33,2.18-.75,4.14-1.93,5.92-3.39.22-.18.44-.37.72-.53-.04.1-.08.2-.12.3-.53,1.28-1.05,2.55-1.58,3.83-.03.07-.06.15-.07.22-.02.52-.29.77-.81.77-.07,0-.13.04-.2.04-.67-.05-.99.42-1.18.92-.13.35-.18.78.09,1.15.07.1.13.24.14.36.01.55.13,1.09-.22,1.62-.13.2-.07.63.07.85.15.25.21.47.22.74.01.44.04.85-.17,1.29-.15.32-.17.81.19,1.15.02.01.04.03.04.05.13.58.58.4.95.4,1.75-.02,3.48.09,5.09.87.48.24.89.56,1.18,1.04.39.64.33,1.86-.33,2.55-.68.7-1.51,1.14-2.39,1.5-1.73.69-3.54.97-5.39,1.06-.45.02-.54.16-.33.56.11.22.21.41.49.5.26.08.37.34.46.58-.03.02-.05.04-.08.06-.11-.14-.22-.29-.34-.45-.07.14-.1.31-.19.36-.09.05-.25-.03-.43-.07.1.2.19.39.28.58-.28-.1-.42-.4-.41-.76.01-.41-.23-.67-.49-.98-.52-.61-1.23-.38-1.84-.55-.28-.08-.58-.11-.9-.16-.02.13-.03.23-.05.43-.11-.22-.17-.35-.25-.5-.17.23-.32.49-.62.13.01.17.02.34.04.53-.25-.19-.26-.43-.06-.88-.82-.39-1.66-.78-2.07-1.69l-.08.03c0,.11-.02.23-.01.34.02.3.03.57-.16.86-.08.12.03.47.17.61.33.35.49,1.1.26,1.52-.11.2-.02.73.15.9.32.32.43,1.13.19,1.52-.14.23-.1.6.07.76.29.28.38,1.14.15,1.47-.22.32-.19.75.04,1.03.07.08.13.2.13.29-.02.43.17.89-.25,1.25-.07.06-.03.26-.04.43.73-.11,1.4-.22,2.07-.3,1.27-.14,2.55-.26,3.82-.4.14-.02.4-.05.41-.1.02-.19.01-.42-.08-.57-.36-.56-.3-1.49-.01-2.1.17-.35.14-.85.05-1.25-.08-.34-.1-.64.08-.95v.74c.25-.18.45-.21.62.14.08-.3.14-.5.21-.77.12.34.04.69-.17.9-.24.25-.29,1-.13,1.31.1.19.14.42.15.63.01.34,0,.69-.04,1.03-.03.21-.15.4-.19.61-.06.27.08.33.34.33,1.64-.01,3.28-.02,4.92-.02.48,0,.71.31.49.73-.74,1.39-.79,2.92-.94,4.43-.02.24-.09.48-.17.71-.12.31-.34.37-.51.09-.23-.38-.41-.81-.54-1.24-.11-.37-.1-.77-.16-1.2-.45.13-.88.23-1.3.36-1.41.43-2.8.89-4.09,1.62-.43.24-.48.33-.38.8.07.32.2.64.29.96.08.3.26.31.51.21.92-.37,1.83-.76,2.76-1.11.35-.13.72-.2,1.09-.27.09-.02.2.04.32.07-.02.08-.03.13-.05.16-.41.42-.62.94-.81,1.48-.26.79-.69,1.47-1.39,2.06-.05-.15-.12-.26-.1-.35.08-.3.19-.59.31-.87.09-.22.24-.43.32-.65.07-.19-.02-.33-.24-.26-.69.23-1.39.47-2.07.73-.11.05-.24.26-.23.39.05.78.13,1.55.21,2.33.02.21.11.29.34.23,1.49-.39,2.58-1.28,3.26-2.65.14-.29.14-.64.2-.96.04-.21.05-.42.11-.62.06-.21.22-.24.34-.06.2.3.39.6.54.92.2.42.36.85.55,1.32-.82.1-1.27.55-1.56,1.22-.18.4-.38.81-.64,1.15-.18.23-.47.42-.74.52-2.38.85-4.77,1.69-7.15,2.52-.68.24-.65.23-.71.94-.22,2.72-.43,5.44-.71,8.16-.15,1.47-.42,2.93-.64,4.4,0,.05-.01.11-.02.21.15-.01.29,0,.4-.04.62-.26,1.24-.53,1.86-.8.23-.1.27-.28.22-.5-.1-.39-.21-.77-.28-1.19.09.1.18.19.26.29.62.73,1.23,1.47,1.86,2.19.23.27.48.58.89.47.4-.11.49-.48.57-.83.07-.31.15-.61.28-.92.06,1.28.53,2.32,1.73,2.81,1.2.49,2.27.11,3.2-.83.48,1.09.94,2.13,1.43,3.25-.24-.04-.43-.05-.62-.1-1.03-.25-2.03-.59-2.97-1.09-.18-.1-.3-.09-.5.03-.28.17-.64.31-.96.31-1.08,0-2.16-.07-3.24-.11-.04,0-.08-.03-.17-.06.86-.32,1.65-.67,2.28-1.31-1.99.21-3.97.34-5.96.09.55-.28,1.11-.54,1.56-1.01-1.33.31-2.61.64-3.91.91-1.3.27-2.62.29-3.95.22.15-.08.3-.16.45-.25,0-.03-.02-.07-.03-.1-.22.01-.45.02-.67.03-.68.02-1.37.12-2.04.04-.79-.09-1.35.36-1.98.65-1.52.69-3.1,1.19-4.73,1.53-.05.01-.11,0-.1,0,2.21-1.47,4.46-2.97,6.71-4.46,0-.02-.02-.04-.02-.06-.05.12-.11.24-.16.36.02.03.03.06.05.09.97-.28,1.95-.56,2.92-.84.02.02.04.04.06.06-.55.59-1.1,1.19-1.65,1.78,0,.02.01.05.02.07.3-.04.6-.06.9-.11.73-.14,1.46-.31,2.19-.46.25-.05.37-.19.45-.43,1.1-3.25,1.89-6.57,2.4-9.96.1-.68.19-1.37.27-2.06.02-.14,0-.28,0-.48-.35.08-.66.17-.97.23-1.68.33-3.37.65-5.05.96-.28.05-.58.05-.87.04-.1,0-.22-.06-.29-.13-.82-.75-1.64-1.51-2.45-2.27-.1-.09-.17-.23-.25-.34.01-.03.02-.06.04-.09.18.02.37,0,.52.08.78.35,1.58.68,2.32,1.1.45.25.85.43,1.37.34.7-.12,1.41-.21,2.12-.32.08-.01.16-.06.27-.11-.12-.2-.25-.36-.32-.54-.06-.15-.05-.33-.08-.5.16,0,.35-.07.48-.02.33.14.66.29.93.51.31.26.63.36,1.02.29.07-.01.13-.02.2-.03.56-.04.98-.22,1-.89,0-.18.14-.35.21-.52.08-.2.02-.28-.21-.28-.62.01-1.25.01-1.87.01-.09,0-.19-.03-.32-.06.18-.41.54-.54.86-.71.38-.2.79-.37,1.18-.54.55-.24.56-.24.47-.93-.25.04-.51.1-.76.13-.74.08-1.48.18-2.22.21-.18,0-.43-.18-.54-.35-.16-.23-.03-.41.26-.47.97-.2,1.94-.41,2.91-.6.31-.06.45-.21.43-.55-.03-.57-.02-1.14-.02-1.71,0-.2-.05-.3-.27-.25-.99.22-1.98.43-2.97.65-.52.11-.83.44-.96.95-.01.05-.03.1-.06.16-.42-.17-.83-.35-1.24-.48-.73-.23-1.48-.2-2.21,0-.12.03-.29.22-.29.34,0,.31.05.62.15.91.03.09.27.15.41.15.57,0,1.14-.05,1.7-.04.37.01.73.13,1.01.55-.5.05-.93.08-1.36.14-.35.05-.7.12-1.05.2-.2.04-.22.12-.11.33.46.85.89,1.72,1.3,2.59.11.22.12.48.18.76-.5.02-.82-.22-1.04-.53-.49-.7-.91-1.45-1.37-2.17-.07-.11-.16-.27-.25-.27-.69-.02-1.37-.01-2.13-.01.23.58.68.94,1.02,1.39-1.13-.63-2.28-1.08-3.63-.56,0-.19,0-.33,0-.47.03-1.32-.22-2.57-.91-3.72-.16-.27-.34-.5-.66-.64-.16-.07-.29-.29-.35-.47-.08-.24.14-.35.32-.44,1.57-.79,3.14-1.58,4.71-2.36.13-.06.25-.13.37-.19-.19-.25-.37-.48-.53-.72-.17-.25-.28-.49-.24-.83.03-.27-.13-.55-.44-.68-.4-.16-.86-.96-.79-1.39.05-.36-.21-.82-.54-.97-.34-.16-.75-1.02-.66-1.41.07-.31-.12-.67-.39-.83-.14-.08-.28-.2-.34-.34-.18-.4-.39-.77-.29-1.27.06-.28-.11-.64-.44-.82-.08-.05-.19-.11-.22-.19-.18-.45-.52-.84-.34-1.41.08-.24-.03-.59-.36-.74-.09-.04-.2-.14-.22-.23-.14-.45-.44-.85-.26-1.4.09-.28-.02-.67-.36-.9-.15-.1-.25-.31-.31-.49-.12-.38-.28-.75-.09-1.19.09-.21,0-.54-.28-.73-.12-.08-.22-.23-.25-.37-.09-.43-.29-.83-.06-1.32.12-.25.04-.68-.28-.93-.19-.14-.35-.4-.54-.43-.19-.02-.42.18-.62.29-.23.12-.46.25-.69.38l-.06-.05Zm10.25,18.7c.14-.04.26-.07.36-.11.77-.28,1.55-.56,2.32-.86.14-.06.35-.25.33-.34-.04-.21-.16-.46-.33-.57-.38-.23-.74-.89-.65-1.33.06-.26-.14-.69-.38-.82-.39-.21-.7-.92-.59-1.34.06-.22-.08-.6-.26-.7-.41-.21-.71-.89-.59-1.35.08-.28-.11-.71-.36-.84-.33-.18-.64-.95-.52-1.32.1-.31,0-.57-.28-.75-.34-.21-.61-.97-.47-1.36.09-.27-.08-.7-.33-.85-.35-.2-.61-.97-.46-1.36.09-.25-.02-.58-.25-.72-.38-.23-.62-.96-.47-1.38.09-.24-.07-.72-.29-.86-.35-.22-.62-.98-.47-1.36.12-.3.03-.58-.25-.75-.28-.17-.58-1.01-.43-1.29.12-.22.12-.46-.03-.58-.18-.13-.41-.3-.7-.17-.7.31-1.42.6-2.13.88-.21.08-.27.21-.28.43-.01.26-.08.52-.16.77-.08.26.05.79.27.97.29.24.5,1.2.34,1.55-.11.24,0,.67.21.83.34.25.61,1.15.46,1.54-.1.26.08.84.3.99.36.23.67,1.09.54,1.51-.09.3.05.68.31.83.34.2.69,1.09.57,1.47-.08.26.15.84.38.96.38.21.72,1.01.7,1.45-.01.24.07.65.23.71.51.22.58.7.81,1.09.05.09.07.21.06.32-.06.53.09.81.54,1.05.07.03.14.09.17.15.2.43.67.78.49,1.35-.02.05.04.12.06.19.09.31.41.38.59.57.35.37.73.77.63,1.41Zm-.29-21.05c-.02-.07-.03-.12-.03-.16-.07-.53-.44-.82-.85-1.07-.07-.04-.2-.03-.29,0-.68.22-1.37.42-2.02.7-.2.09-.36.39-.42.63-.03.12.16.34.3.46.24.2.5.99.38,1.28-.14.33-.05.63.25.81.26.16.54,1,.43,1.29-.13.34,0,.75.3.95.32.21.56.99.41,1.34-.1.24.02.57.26.71.33.18.62,1,.48,1.35-.09.24.06.74.26.86.42.24.68.92.54,1.38-.09.28,0,.53.25.68.39.23.67.91.55,1.36-.08.3.08.7.36.85.35.19.65.95.53,1.33-.08.26.06.58.3.69.36.17.71.93.59,1.3-.09.3.11.73.4.85.31.13.7.92.62,1.24-.13.51.33.96.85.81.7-.2,1.39-.42,2.08-.6.25-.07.31-.16.2-.39-.12-.24-.11-.49-.09-.77.02-.25-.15-.58-.35-.76-.27-.25-.76-1.12-.68-1.48.12-.53-.05-.92-.49-1.22-.1-.06-.18-.17-.22-.28-.11-.25-.21-.51-.3-.78-.04-.11-.05-.24-.03-.36.1-.5.01-.73-.41-1.02-.08-.05-.16-.14-.19-.23-.15-.46-.51-.88-.29-1.42.03-.06,0-.16-.03-.23-.12-.3-.23-.57-.52-.81-.26-.21-.35-.65-.47-1.01-.05-.13-.04-.31.01-.45.11-.32-.01-.68-.2-.79-.48-.27-.53-.75-.7-1.16-.06-.16-.05-.37,0-.54.06-.29-.15-.89-.4-1.05-.35-.23-.69-1.18-.56-1.59.08-.25-.02-.73-.23-.84-.32-.16-.41-.45-.51-.74-.12-.36-.29-.71-.06-1.06Zm8.83,18.28c0-.11-.01-.14-.01-.16-.3-1.8-.56-3.61-.91-5.4-.48-2.47-1.13-4.9-1.9-7.3-.83-2.6-1.8-5.15-2.9-7.65-.1-.22-.22-.24-.41-.18-.54.16-1.08.34-1.63.48-.4.1-.66.25-.8.7-.14.45,0,.87.24,1.06.41.32.47.76.65,1.16.05.12.06.29.03.42-.11.47,0,.77.36,1.05.09.06.17.16.21.25.11.29.21.58.3.88.03.11.03.25-.01.35-.16.4.02.83.26,1,.49.34.52.86.72,1.31.04.09,0,.22-.02.32-.11.39.02.75.35.96.08.05.19.12.21.21.14.48.53.9.3,1.46-.03.06,0,.16.03.23.12.32.27.58.52.84.3.31.38.83.55,1.26,0,.02-.02.06-.02.1-.12.46,0,.74.39,1.03.1.07.18.19.24.31.11.24.22.49.29.75.04.14.03.31,0,.45-.07.28.13.88.38,1.03.4.25.72,1.14.68,1.6-.02.26.07.64.25.77.33.22.47.51.61.84.04.09.21.16.32.16.16,0,.33-.04.49-.1.11-.04.19-.15.25-.19ZM14.78,4.4c.01-2.19-1.78-3.97-4.01-3.98-2.22,0-4.05,1.75-4.06,3.9-.01,2.15,1.87,4.01,4.09,4.03,2.22.02,3.97-1.72,3.99-3.95Zm6.78,29.11c0,.34.03.65,0,.96-.02.17-.11.36-.22.5-.15.19-.32.69-.19.89.19.29.15.57.06.86-.14.46-.11.91,0,1.4.24-.06.46-.1.67-.16,2.78-.78,5.5-1.73,8.13-2.94,1.03-.47,2.09-.9,2.97-1.64.09-.08.16-.19.25-.3-.67-.2-4.43-.3-4.75-.14.04.24.09.48.13.71-.04,0-.07.02-.11.03-.06-.19-.12-.39-.18-.58-.16.48-.4.26-.65.07.01.26.02.47.03.68-.04,0-.09,0-.13,0-.02-.3-.05-.6-.08-.96-1.97.07-3.94.28-5.93.61Zm2.86-15.3c.07,0,.11,0,.15,0,.92-.19,1.83-.37,2.75-.57.07-.02.14-.12.18-.19.06-.13.14-.27.14-.4,0-.4.08-.86-.09-1.18-.32-.59-.24-1.17-.19-1.78,0-.05.05-.1.08-.14.19-.24.19-.81.03-1.05-.39-.56-.34-1.21-.1-1.75.17-.39.19-.74.19-1.11,0-.4-.37-.65-.76-.57-1,.21-2,.44-3.01.64-.22.05-.35.11-.35.38,0,.19-.11.38-.2.56-.13.25-.05.8.15.98.32.28.46,1.13.25,1.51-.14.26-.08.63.13.82.24.2.42,1.13.28,1.41-.24.48-.19.77.15,1.19.09.11.13.28.15.43.04.27.04.55.07.84Zm-3.87,13.19c.33-.26.51-.85.27-1.05-.44-.36-.25-.82-.3-1.24-.01-.09.06-.21.12-.29.15-.21.12-.61-.07-.78-.29-.27-.4-1.13-.19-1.46.15-.22.08-.74-.12-.91-.3-.25-.47-1.07-.31-1.41.15-.32.1-.6-.16-.86-.25-.25-.35-1.21-.1-1.45.31-.28.38-.67.35-1-.03-.49.27-.82.41-1.22.11-.32.15-.59-.1-.83-.26-.25-.37-1.12-.19-1.41.15-.24.08-.75-.14-.94-.3-.27-.45-1.09-.26-1.45.14-.28.08-.6-.16-.8-.26-.22-.45-1.03-.31-1.34.21-.49.14-.75-.26-1.07-.1-.08-.21-.2-.23-.32-.05-.25-.18-.26-.39-.21-.74.2-1.49.39-2.23.57-.21.05-.23.13-.17.33.64,2.05,1.31,4.09,1.9,6.16.86,3.03,1.53,6.11,2.04,9.22.2,1.24.38,2.49.58,3.76Zm-.82,1.79c-.3-1.99-.56-4-.92-5.98-.39-2.15-.86-4.28-1.35-6.41-.64-2.8-1.49-5.55-2.41-8.28-.07-.2-.17-.24-.35-.19-.32.09-.64.2-.97.26-.27.05-.27.17-.18.37.18.42.35.84.52,1.27,1.18,2.98,2.22,6,3.01,9.1.45,1.77.86,3.55,1.21,5.35.31,1.55.51,3.12.76,4.68.02.1.1.25.17.26.32.07.49-.11.51-.44Zm3.83-14.66c-.25-.53-.39-1.06-.15-1.59.14-.31.12-.75-.13-.99-.28-.27-.4-1.13-.21-1.47.17-.31.11-.63-.15-.87-.25-.23-.4-1.11-.26-1.42.07-.15.09-.32.1-.49.04-.56-.58-.69-.73-1.13-.01-.03-.17-.02-.25,0-.47.1-.93.23-1.4.32-.21.04-.25.13-.24.34,0,.19-.1.4-.21.57-.16.24-.14.73.08.9.38.31.53,1.08.3,1.51-.12.23-.06.58.13.73.37.3.46,1.06.3,1.52-.09.25-.04.65.12.85.31.39.46,1.1.25,1.53-.09.18-.09.43-.05.63.05.25.29.28.51.14.35-.22.7-.44,1.06-.64.31-.17.63-.31.93-.45Zm-.11,2.7s.06.04.09.04c.82.03,1.65.06,2.47.07.11,0,.25-.11.34-.2.17-.16.3-.37.54-.4.04.04.08.09.12.13l-.6.36c.12.1.16.12.19.12,2.07.07,4.15.13,6.22.2.11,0,.23,0,.33-.04.21-.07.3-.16.1-.37-.77-.81-1.55-1.6-2.27-2.45-.39-.46-.84-.52-1.34-.43-.4.07-.91.12-.99.63-.05.33.03.7.14,1.02.14.39.08.85-.27,1.09.08-.27.15-.53.22-.79-.3.27-.39.26-.65-.09-.08.12-.16.23-.24.35-.03-.02-.07-.04-.1-.07.12-.18.23-.37.37-.54.12-.15.15-.64.01-.82-.15-.19-.33-.12-.52-.05-1.14.44-2.29.88-3.43,1.32-.39.15-.74.57-.74.91Zm-6.84,39.98c.21.02.31.04.42.04.42-.01.85-.06,1.27-.04.33.01.45-.13.5-.43.28-1.96.61-3.92.86-5.89.2-1.65.32-3.31.45-4.96.06-.68.07-1.37.11-2.05-.65-.08-.89.11-.92.66-.01.18-.04.35-.06.53-.34,3.47-1.04,6.87-1.99,10.22-.13.46-.26.91-.4,1.39.12.02.2.03.29.05-.16.15-.3.28-.52.48Zm-2.28-25.91s.07.03.11.05c.02.28.03.56.05.84,0,.06.02.13.05.18.15.22.22.52.57.54.08,0,.16.11.21.2.2.33.53.62.39,1.08-.01.04.03.1.05.15.19.41.73.36.97.73.01.02.11,0,.16,0,.52-.1,1.05-.19,1.57-.31.08-.02.15-.12.19-.2.04-.1.07-.22.05-.32-.06-.26-.08-.66-.25-.74-.44-.23-.54-.63-.71-1-.07-.17-.17-.39-.12-.54.15-.4-.11-.69-.23-1-.07-.2-.68-.39-.91-.32-.57.16-1.13.33-1.7.5-.16.05-.32.12-.47.19Zm-1.4,4.32c.76-.09,1.51-.19,2.26-.28.21-.03.47-.08.41-.32-.05-.21-.23-.46-.41-.54-.42-.18-.88-.82-.81-1.27.05-.34-.15-.62-.39-.74-.28-.14-.44-.32-.56-.58-.08-.18-.2-.26-.39-.18-.79.31-1.58.61-2.36.92-.07.03-.17.12-.16.18,0,.09.09.23.15.24.52.07.64.55.89.88.09.11.1.29.14.43.04.15.03.35.12.45.3.29.63.54.96.8.04.03.11.02.15.03Zm-7.92-.03s.01.06.02.09c.21.05.42.13.63.13,1.89-.01,3.79-.04,5.68-.06.22,0,.34-.16.27-.32-.1-.23-.25-.5-.45-.6-.47-.23-.96-.88-.94-1.4.01-.42-.16-.55-.53-.36-1.38.72-2.76,1.44-4.14,2.16-.19.1-.36.24-.54.36Zm16.3,6.59c.06.01.1.03.13.02.07-.02.14-.06.21-.09,1.07-.44,2.14-.86,3.21-1.31.09-.04.19-.2.19-.31.01-.67,0-1.34,0-2,0-.64-.21-.84-.82-.65-.92.29-1.83.62-2.74.96-.33.12-.19.45-.17.68.02.26.26.12.37.08.45-.16.88-.37,1.33-.54.27-.1.54-.18.82-.27,0,.15-.03.22-.08.28-.56.78-1.3,1.33-2.16,1.74-.11.05-.27.15-.28.24-.03.39-.01.79-.01,1.19Zm-.18-7.25s.1.04.15.06c0,.76,0,1.52,0,2.27,0,.15,0,.33.22.28,1.05-.27,2.09-.55,3.13-.84.07-.02.17-.17.15-.24-.2-.75-.41-1.5-.63-2.25-.06-.21-.19-.27-.41-.2-.78.23-1.57.44-2.34.67-.1.03-.18.16-.26.24Zm-12.71,2.49h0c-.48,0-.96,0-1.44,0-.22,0-.28.09-.19.29.17.4.3.82.51,1.2.08.15.32.32.48.31.86-.02,1.71-.09,2.56-.15.21-.01.27-.1.22-.3-.09-.32-.18-.64-.26-.97-.07-.27-.24-.38-.51-.38-.46,0-.91,0-1.37,0Zm6.07-30.42c-.32-.8-.63-1.56-.94-2.32-.07-.18-.18-.17-.35-.08-.35.18-.72.35-1.09.49-.23.08-.25.18-.16.37.28.59.55,1.19.84,1.78.04.09.22.18.31.15.45-.11.9-.25,1.39-.39Zm16.86,7.31s-.02.06-.04.1c.04.06.08.12.13.18.64.69,1.28,1.39,1.93,2.07.5.52.57.5,1.01-.08.32-.42.29-.84-.07-1.23-.5-.53-1.18-.69-1.84-.85-.37-.09-.75-.13-1.13-.18Zm.49,3.81c0-.05-.02-.1-.02-.15-1.53-.04-3.07-.09-4.6-.11-.44,0-.6.2-.67.63-.07.42-.02.5.39.46.88-.08,1.77-.14,2.65-.29.76-.13,1.5-.35,2.25-.54Zm-6.29.85c.43-.02.54.08.55-.47,0-.13.04-.27.08-.39.09-.25-.02-.31-.26-.31-.58,0-1.16-.03-1.73-.05-.77-.02-.6-.08-.64.62-.02.25.07.36.32.39.56.06,1.12.14,1.68.22Zm-6.05,15.14c.42-.1.59-.28.55-.69-.11-1.1-.19-2.21-.29-3.32,0-.08-.09-.19-.15-.21-.33-.08-.51.08-.48.42.1,1.16.2,2.33.31,3.49,0,.1.04.19.06.31Zm13.35-16s-.03-.09-.04-.13c-.18.03-.36.03-.53.09-1.67.6-3.39.91-5.16,1-.1,0-.19.09-.28.14.1.06.2.18.3.18,1.8-.06,3.57-.35,5.24-1.04.16-.07.31-.15.46-.23Zm-13.24,19.99q.64-.11.62-.68c-.02-.68-.04-1.36-.07-2.04,0-.15.03-.35-.21-.33-.21.02-.44.01-.43.36.03.77.03,1.54.04,2.3,0,.12.03.24.05.38Zm11.4-24.08s0,.08-.01.11c.32.04.64.08.96.14.79.13,1.57.31,2.24.79.62.45.7,1.08.2,1.66-.09.11-.21.2-.3.32-.06.07-.09.17-.17.31.14-.02.23,0,.27-.05.3-.3.64-.59.89-.94.32-.44.28-.67-.1-1.07-.17-.18-.38-.35-.6-.47-1.01-.55-2.11-.74-3.24-.85-.05,0-.1.02-.14.04Zm-12.05,18.63c.05-.05.07-.07.07-.08-.07-.79-.13-1.57-.21-2.36,0-.05-.04-.11-.09-.13-.18-.09-.81.19-.87.38-.11.34.13.93.42,1.13.14.09.26.24.35.38.13.21.21.45.32.69Zm8.68-18.15c-.09-.08-.1-.11-.12-.11-1.11.24-2.21.48-3.31.74-.05.01-.11.14-.11.21,0,.15.04.3.08.5,1.15-.45,2.29-.88,3.46-1.34Zm-7.43,26.52c-.55,0-.73.16-.75.64-.01.24-.02.49-.04.73-.03.26.05.45.34.47.27.02.43-.15.45-.39.03-.47,0-.95,0-1.44Zm7.19-30.78c.02.44.04.88.06,1.33.03.01.07.03.1.04.16-.33.35-.24.54-.05.03-.01.06-.03.08-.04-.02-.44-.05-.88-.08-1.4-.33.39-.36.39-.71.12Zm.73,17.22v-1.38c-.32.35-.34.35-.66-.03v1.45c.13-.14.21-.3.33-.33.07-.02.19.16.33.29Zm-14.8-8.39c-.16.29-.28.54-.66.14.07.52.21.9.41,1.18.24-.08.41-.14.65-.23-.12-.33-.26-.71-.4-1.09Zm14.07-10.44c.14-.15.23-.32.32-.32.11,0,.22.15.36.26.05-.44.08-.87-.03-1.36-.28.38-.29.39-.65.05v1.38Zm-15.95,5.23c-.19.49-.24.51-.67.32.14.38.28.76.42,1.14.02-.03.05-.07.07-.1.17-.05.35-.11.58-.18-.11-.33-.25-.72-.41-1.19Zm3.13,10.55c.15.38.3.75.46,1.13.04,0,.07.01.11.02.04-.39.3-.26.58-.24-.17-.42-.31-.78-.48-1.21-.21.45-.23.46-.66.31Zm5.67,14.82c-.6-.06-.73.05-.72.58,0,.06,0,.11,0,.17-.02.19.06.31.26.3.19,0,.44,0,.46-.27.03-.26,0-.52,0-.78ZM3.75,22.18l.07-.06c-.11-.35-.22-.71-.33-1.09-.13.14-.2.28-.29.29-.1.02-.23-.05-.38-.1.08.4.14.77.41,1.16.11-.37.31-.31.52-.19Zm1.65,4.71s.08.01.12.02c-.14-.34-.27-.69-.41-1.03-.03,0-.07-.01-.1-.02-.03.44-.26.41-.54.23-.02.02-.03.05-.05.07.15.35.29.7.41,1,.23-.11.4-.18.56-.26Zm2.23,4.6c-.15-.28-.32-.61-.49-.93-.03,0-.06,0-.09,0,0,.42-.23.39-.6.24.22.44.39.77.53,1.04.24-.13.4-.22.65-.35Zm2.49,4.45c-.16-.26-.36-.58-.55-.89-.09.36-.23.5-.6.26,0,.04-.01.08-.02.12.2.31.4.63.56.89.24-.15.39-.24.61-.38Zm.26-19.05c.11-.21.15-.4.24-.42.11-.02.25.08.45.16-.14-.41-.27-.77-.44-1.23-.14.42-.3.57-.6.24-.02.03-.03.05-.05.08.13.37.26.74.41,1.17Zm8.54,20c-.17-.38-.33-.73-.49-1.09-.03,0-.06,0-.09,0-.04.37-.2.45-.5.21l-.06.07c.15.36.31.72.48,1.11.08-.2.11-.39.19-.43.09-.04.25.06.47.12Zm-4.11-10.07c-.15-.37-.3-.74-.46-1.15-.11.18-.16.34-.25.38-.09.03-.22-.06-.43-.14.16.42.3.79.44,1.16.17-.49.25-.51.7-.25Zm-2.33-6.2c-.22.4-.23.4-.71.19.16.42.29.77.42,1.13.12-.16.19-.34.29-.35.11-.01.24.11.44.22-.16-.44-.3-.81-.44-1.18Zm3.26,10.37l-.06.06c.15.36.3.72.47,1.1.11-.19.15-.37.24-.41.08-.03.23.08.43.17-.16-.41-.31-.77-.45-1.12l-.1-.06c-.03.5-.26.43-.53.25Zm7.44-16.33l-.06.05c.06.35.12.7.16.97.28-.03.48-.05.72-.07-.05-.32-.1-.66-.15-1-.03-.01-.06-.02-.09-.03-.14.39-.35.27-.57.09Zm4.45,3.53c-.44-.22-3.23.41-3.47.78,1.15-.26,2.29-.51,3.47-.78Zm-6.7,7.09c-.05-.29-.11-.62-.17-.95-.03-.02-.06-.05-.09-.07-.13.37-.33.39-.63.21.06.32.12.65.17.92.28-.04.47-.07.72-.11Zm4.55-1.89s0-.01,0-.02c.04,0,.1.01.13,0,.1-.05.19-.11.28-.16-.09-.05-.17-.12-.26-.13-.6-.08-1.21-.15-1.81-.21-.09,0-.19.06-.28.09.08.06.15.16.23.18.57.1,1.14.17,1.71.26Zm-5.48-7.13c.28-.04.48-.06.72-.09-.06-.3-.12-.63-.17-.95-.2.28-.41.27-.73.06.07.41.13.72.18.98Zm1.18,4.77c.11-.06.27-.1.32-.19.34-.63.92-.97,1.51-1.31.09-.05.14-.15.21-.23l-.08-.07c-.8.41-1.65.78-1.95,1.8Zm-16.52,3.62c-.14-.39-.26-.73-.38-1.07-.17.31-.37.38-.66.18-.02.02-.03.05-.05.07.13.34.26.68.39,1.02.11-.17.16-.33.26-.37.08-.03.22.08.43.18Zm16.01,4.42c.02.33.03.66.05.94.26-.02.45-.03.72-.05-.02-.28-.05-.61-.07-.94-.03-.01-.06-.02-.09-.03-.16.31-.35.29-.61.08ZM2.27,18.71s-.06.06-.08.09c.08.36.16.72.25,1.08.24-.43.31-.45.72-.17-.08-.35-.17-.7-.25-1.05-.22.25-.37.45-.63.04Zm6.67,15.24c-.23-.39-.41-.73-.6-1.06-.08.41-.29.43-.59.27-.02.02-.03.05-.05.07.18.32.36.64.55.96.1-.19.13-.36.23-.41.07-.04.22.07.46.16Zm-3.51-5.43c.15.42.25.77.49,1.06.08-.15.11-.32.19-.36.09-.04.24.06.45.12-.17-.38-.32-.71-.46-1.04-.19.4-.25.42-.68.22Zm5.92,2.66c.17.35.31.65.43.9.25-.11.42-.19.65-.29-.11-.25-.24-.56-.4-.94-.19.44-.2.44-.67.33Zm-3.27-8.47c.11.31.22.61.31.85.27-.09.46-.15.69-.22-.1-.28-.21-.58-.32-.88-.17.31-.37.36-.69.25Zm1.64,4.2s-.04.06-.06.09c.12.3.24.6.34.85.26-.09.44-.16.69-.26-.12-.28-.24-.58-.36-.87-.03,0-.06,0-.08,0-.07.31-.22.43-.52.19Zm-3.04-8.6s-.04.05-.06.07c.11.3.22.61.31.85.27-.07.45-.12.69-.19-.09-.28-.2-.58-.3-.89-.03,0-.06,0-.09-.01-.1.32-.29.36-.54.17Zm16.87-.05c.28-.45.32-.46.73-.08-.05-.43-.09-.77-.13-1.11-.02-.02-.05-.03-.07-.05-.14.38-.37.3-.66.1.05.4.09.73.13,1.14Zm-12.01,19.87c-.2-.28-.4-.56-.59-.85-.03,0-.06,0-.08,0,.02.41-.18.45-.52.39l.61.89c.06-.45.11-.49.58-.44Zm12.08-24.89c-.06-.33-.11-.67-.17-1-.03-.03-.06-.05-.09-.08-.1.43-.31.4-.63.12.07.43.12.75.17,1.07.29-.35.35-.36.73-.11Zm-3.51-.3s-.07-.02-.1-.03c-.1.39-.31.32-.55.12-.02.02-.04.04-.06.06.06.32.12.63.18.95.26-.36.36-.37.72-.11-.07-.33-.13-.66-.2-.99Zm.25,5.66c.13-.09.23-.22.33-.21.11,0,.22.12.4.22-.05-.36-.1-.69-.15-1.01-.03-.01-.05-.02-.08-.04-.17.3-.37.31-.65.12.05.32.1.64.14.91Zm.78,8.11s-.07-.03-.1-.04c-.15.35-.35.31-.62.12.04.32.07.65.12,1.04.32-.42.35-.42.72-.06-.04-.4-.08-.73-.11-1.05Zm-.33,4.74v.94c.14-.08.24-.2.34-.2.1,0,.19.13.33.23v-1.05c-.23.2-.41.4-.66.08Zm-7.78,1.62s-.08-.02-.11-.02c-.02.4-.25.36-.51.26-.02.03-.04.05-.05.08.14.29.29.57.43.86.16-.42.22-.45.68-.22-.17-.37-.3-.66-.43-.95Zm-4.97-12.67s-.07-.02-.1-.03c-.09.36-.3.34-.56.17l-.05.07c.11.29.22.58.33.87.2-.4.26-.42.69-.2-.1-.3-.21-.59-.31-.89Zm2.55,8.72s-.05.04-.08.06c.12.3.25.59.41.97.16-.52.2-.53.63-.38-.13-.29-.25-.57-.38-.86-.03,0-.06,0-.09.01-.06.34-.25.34-.49.2Zm9.18-7.12v1.14c.21-.37.42-.38.74.01-.03-.42-.05-.72-.08-1.08-.25.28-.45.32-.66-.08Zm-10.22,2.69s-.06-.02-.09-.04c-.09.31-.27.38-.63.19.15.39.26.68.4,1.05.17-.49.19-.5.67-.29-.13-.34-.24-.63-.35-.92Zm5.42,13.53s.07,0,.11,0c-.02-.38.13-.5.49-.3l.03-.08c-.16-.26-.32-.53-.48-.79h-.08c-.02.35-.21.42-.6.28.22.36.38.62.54.88ZM6.02,16.22s-.03.04-.05.06c.09.29.19.59.29.9.13-.15.2-.3.28-.31.11-.02.24.07.43.14-.11-.34-.21-.64-.31-.94-.17.32-.37.35-.64.15Zm15.7,4.38l.07.1c.77,0,1.24-.4,1.16-1.07-.44.34-.83.65-1.23.96Zm-4.04,13.42c-.14-.31-.25-.55-.36-.79-.03,0-.06-.02-.09-.03-.03.45-.24.42-.55.25.06.24.11.54.27.63.15.09.43-.03.72-.07Zm3.15-.08c-.03.35,0,.68.53.84.03-.36.05-.69.08-1.03-.24.08-.41.13-.61.19Zm-6.39,1.91c-.11-.14-.21-.39-.37-.44-.14-.05-.36.11-.54.17.09.22.17.44.24.63.25-.13.43-.23.67-.36Zm6.76-14.23l-.07.09c.04.08.07.18.13.23.3.24.61.46.93.68.06.04.18.01.26.02-.04-.09-.06-.2-.13-.25-.24-.21-.49-.41-.74-.6-.11-.08-.26-.11-.39-.17Zm1.85-1.41c.71-.08.96-.27.94-.59-.17-.04-.33-.09-.48-.1-.08,0-.21.03-.24.08-.09.17-.13.37-.21.6Zm.33,2.43v-.86c-.24.39-.42.3-.61.02-.05.19-.15.44-.07.52.16.15.41.2.68.32Zm-3.56-11.12c-.04-.11-.07-.4-.15-.41-.19-.03-.42.03-.58.14-.07.05.02.31.03.43.25-.06.43-.1.69-.16Zm2.69-.64c.25-.05.43-.09.67-.14-.01-.12-.03-.28-.06-.52-.26.09-.49.14-.67.26-.05.04.04.29.06.39ZM2.54,16.47c-.22.11-.43.19-.61.3-.06.04-.11.18-.09.24.02.06.15.13.22.12.41-.07.56-.21.48-.67Zm19.26,5.19c-.02.06-.04.11-.07.17.24.13.47.27.71.4.05-.15.11-.31.19-.52-.32-.02-.57-.03-.83-.04Zm-.8-1.48c-.18-.1-.32-.17-.44-.24-.1.24-.2.47-.3.7.48.2.55-.21.74-.46Zm1.16.94s.01.08.02.13c.17,0,.34,0,.51,0,.32,0,.36-.06.28-.44-.27.11-.54.21-.81.31Zm-12.06-7.21s-.09-.16-.13-.15c-.19.04-.37.12-.55.2,0,0,.04.15.05.16.23-.07.4-.13.63-.21Zm18.37,4.25c0-.06-.02-.12-.03-.19-.21.03-.41.06-.62.09,0,.05.01.1.02.14.21-.02.42-.03.63-.05Z"/>
  </g>
</svg>