<?xml version="1.0" encoding="UTF-8"?>
<svg id="Layer_2" data-name="Layer 2" xmlns="http://www.w3.org/2000/svg" viewBox="0 0 78.36 90.48">
  <defs>
    <style>
      .cls-1, .cls-2 {
        stroke-width: 0px;
      }

      .cls-2 {
        fill: #fff;
      }
    </style>
  </defs>
  <g id="Layer_1-2" data-name="Layer 1">
    <g>
      <path class="cls-2" d="m78.36,90.48H0C0,60.32,0,30.16,0,0,26.12,0,52.24,0,78.36,0v90.48ZM21.2,36.59l.06.05c.23-.13.46-.25.69-.38.21-.11.43-.31.62-.29.19.02.35.28.54.43.32.24.4.67.28.93-.23.49-.03.89.06,1.32.03.14.13.29.25.37.28.18.37.52.28.73-.19.44-.03.81.09,1.19.06.18.16.39.31.49.34.23.45.63.36.9-.17.55.13.95.26,1.4.03.09.13.19.22.23.33.15.44.5.36.74-.18.57.16.96.34,1.41.03.08.13.15.22.19.33.18.5.54.44.82-.1.5.11.87.29,1.27.06.14.21.26.34.34.28.16.46.51.39.83-.08.39.32,1.26.66,1.41.33.15.59.62.54.97-.06.44.39,1.23.79,1.39.31.12.47.41.44.68-.04.34.07.59.24.83.17.24.35.47.53.72-.11.06-.24.12-.37.19-1.57.79-3.14,1.58-4.71,2.36-.18.09-.4.2-.32.44.06.18.19.4.35.47.31.14.5.37.66.64.69,1.14.94,2.4.91,3.72,0,.14,0,.28,0,.47,1.35-.52,2.51-.07,3.63.56-.34-.46-.79-.81-1.02-1.39.76,0,1.45-.01,2.13.01.09,0,.18.17.25.27.46.72.88,1.47,1.37,2.17.22.31.54.55,1.04.53-.06-.28-.08-.54-.18-.76-.42-.87-.85-1.74-1.3-2.59-.11-.21-.09-.28.11-.33.35-.08.7-.15,1.05-.2.42-.06.85-.09,1.36-.14-.28-.41-.64-.53-1.01-.55-.57-.02-1.13.04-1.7.04-.14,0-.38-.06-.41-.15-.1-.29-.15-.61-.15-.91,0-.12.17-.31.29-.34.73-.2,1.48-.22,2.21,0,.42.13.82.32,1.24.48.02-.06.04-.11.06-.16.12-.52.44-.84.96-.95.99-.22,1.98-.43,2.97-.65.22-.05.27.05.27.25,0,.57-.01,1.14.02,1.71.02.34-.11.48-.43.55-.97.19-1.94.41-2.91.6-.29.06-.42.23-.26.47.12.17.36.36.54.35.74-.03,1.48-.13,2.22-.21.26-.03.51-.08.76-.13.09.68.08.69-.47.93-.4.17-.8.34-1.18.54-.31.17-.67.29-.86.71.13.02.22.06.32.06.62,0,1.25,0,1.87-.01.23,0,.29.08.21.28-.07.18-.2.35-.21.52-.02.67-.44.85-1,.89-.07,0-.13.02-.2.03-.39.06-.71-.03-1.02-.29-.27-.22-.6-.37-.93-.51-.13-.06-.32,0-.48.02.02.17.02.35.08.5.07.18.2.34.32.54-.11.05-.18.1-.27.11-.7.11-1.41.19-2.12.32-.52.09-.93-.09-1.37-.34-.74-.42-1.54-.75-2.32-1.1-.16-.07-.35-.05-.52-.08-.01.03-.02.06-.04.09.08.11.15.25.25.34.81.76,1.63,1.52,2.45,2.27.08.07.19.12.29.13.29,0,.59.01.87-.04,1.69-.31,3.37-.64,5.05-.96.31-.06.62-.15.97-.23,0,.19.01.34,0,.48-.08.69-.17,1.37-.27,2.06-.52,3.39-1.3,6.71-2.4,9.96-.08.24-.2.38-.45.43-.73.15-1.46.31-2.19.46-.29.06-.6.08-.9.11,0-.02-.01-.05-.02-.07.55-.59,1.1-1.19,1.65-1.78-.02-.02-.04-.04-.06-.06-.97.28-1.95.56-2.92.84-.02-.03-.03-.06-.05-.09.05-.12.11-.24.16-.36,0,.02.02.04.02.06-2.25,1.5-4.5,2.99-6.71,4.46,0,0,.05,0,.1,0,1.63-.33,3.21-.84,4.73-1.53.63-.28,1.19-.74,1.98-.65.67.08,1.36-.02,2.04-.04.22,0,.45-.02.67-.03,0,.03.02.07.03.1-.15.08-.3.16-.45.25,1.33.07,2.66.05,3.95-.22,1.29-.27,2.58-.6,3.91-.91-.46.47-1.01.73-1.56,1.01,1.99.25,3.97.12,5.96-.09-.64.64-1.42.99-2.28,1.31.09.03.13.05.17.06,1.08.04,2.16.11,3.24.11.32,0,.68-.14.96-.31.2-.12.32-.13.5-.03.94.5,1.94.84,2.97,1.09.18.04.37.06.62.1-.49-1.12-.95-2.16-1.43-3.25-.94.94-2,1.33-3.2.83-1.21-.5-1.67-1.53-1.73-2.81-.13.31-.21.62-.28.92-.08.35-.18.72-.57.83-.41.12-.66-.2-.89-.47-.63-.73-1.24-1.46-1.86-2.19-.09-.1-.18-.2-.26-.29.07.42.18.81.28,1.19.05.21,0,.4-.22.5-.62.27-1.24.54-1.86.8-.11.05-.25.03-.4.04,0-.1.01-.16.02-.21.22-1.47.49-2.93.64-4.4.28-2.72.49-5.44.71-8.16.06-.71.03-.7.71-.94,2.39-.83,4.78-1.66,7.15-2.52.28-.1.57-.29.74-.52.27-.35.47-.75.64-1.15.29-.67.74-1.12,1.56-1.22-.19-.47-.35-.9-.55-1.32-.15-.32-.34-.62-.54-.92-.12-.18-.28-.15-.34.06-.06.2-.07.41-.11.62-.06.32-.06.68-.2.96-.68,1.38-1.77,2.26-3.26,2.65-.23.06-.32-.02-.34-.23-.07-.78-.16-1.55-.21-2.33,0-.13.12-.35.23-.39.68-.27,1.37-.5,2.07-.73.21-.07.31.07.24.26-.08.23-.23.43-.32.65-.12.28-.22.57-.31.87-.02.09.05.2.1.35.7-.59,1.12-1.27,1.39-2.06.18-.54.39-1.07.81-1.48.03-.03.03-.08.05-.16-.12-.03-.23-.09-.32-.07-.37.07-.74.14-1.09.27-.93.35-1.84.74-2.76,1.11-.24.1-.42.09-.51-.21-.09-.32-.22-.63-.29-.96-.1-.47-.05-.56.38-.8,1.29-.73,2.69-1.18,4.09-1.62.42-.13.85-.24,1.3-.36.05.43.05.83.16,1.2.12.43.3.86.54,1.24.17.28.39.22.51-.09.09-.23.15-.47.17-.71.15-1.51.2-3.04.94-4.43.22-.42-.01-.73-.49-.73-1.64,0-3.28,0-4.92.02-.26,0-.4-.06-.34-.33.05-.21.17-.4.19-.61.04-.34.06-.69.04-1.03,0-.21-.06-.44-.15-.63-.16-.31-.11-1.06.13-1.31.21-.22.29-.57.17-.9-.07.27-.13.48-.21.77-.17-.35-.37-.32-.62-.14v-.74c-.18.32-.16.61-.08.95.09.4.11.9-.05,1.25-.29.61-.34,1.54.01,2.1.1.15.1.38.08.57,0,.05-.26.09-.41.1-1.27.13-2.55.25-3.82.4-.67.08-1.34.19-2.07.3.01-.17-.03-.37.04-.43.41-.36.23-.83.25-1.25,0-.1-.06-.21-.13-.29-.24-.28-.26-.71-.04-1.03.22-.32.13-1.19-.15-1.47-.17-.17-.21-.54-.07-.76.24-.39.13-1.2-.19-1.52-.17-.17-.26-.7-.15-.9.24-.43.08-1.17-.26-1.52-.13-.14-.25-.49-.17-.61.19-.29.17-.56.16-.86,0-.11,0-.23.01-.34l.08-.03c.42.91,1.25,1.29,2.07,1.69-.21.46-.19.7.06.88-.01-.19-.02-.36-.04-.53.3.36.45.1.62-.13.08.16.14.29.25.5.02-.2.04-.3.05-.43.32.05.62.08.9.16.61.17,1.32-.06,1.84.55.26.31.5.57.49.98-.01.36.13.66.41.76-.09-.2-.19-.38-.28-.58.18.03.34.11.43.07.09-.05.12-.22.19-.36.12.16.23.31.34.45.03-.02.05-.04.08-.06-.08-.24-.2-.49-.46-.58-.27-.09-.38-.29-.49-.5-.2-.39-.11-.54.33-.56,1.85-.09,3.66-.37,5.39-1.06.88-.35,1.71-.8,2.39-1.5.66-.69.72-1.91.33-2.55-.29-.48-.7-.81-1.18-1.04-1.61-.79-3.34-.9-5.09-.87-.38,0-.82.18-.95-.4,0-.02-.03-.03-.04-.05-.36-.33-.34-.83-.19-1.15.21-.44.18-.85.17-1.29,0-.27-.06-.49-.22-.74-.14-.22-.19-.65-.07-.85.34-.53.23-1.07.22-1.62,0-.12-.06-.26-.14-.36-.27-.37-.21-.8-.09-1.15.19-.5.5-.97,1.18-.92.06,0,.13-.04.2-.04.52,0,.79-.25.81-.77,0-.08.04-.15.07-.22.53-1.28,1.05-2.55,1.58-3.83.04-.1.08-.2.12-.3-.28.16-.5.35-.72.53-1.78,1.47-3.73,2.64-5.92,3.39-1.4.48-2.82.9-4.24,1.33-1.75.53-3.5,1.05-5.25,1.58-.3.09-.43.03-.54-.28-.27-.78-.57-1.55-.9-2.3-.12-.28-.07-.45.09-.66.45-.6.73-1.27.85-2.01.28-1.79-.29-3.28-1.69-4.39-1.38-1.1-2.97-1.27-4.58-.58-2.98,1.28-3.75,5.14-1.51,7.49.88.93,2,1.4,3.29,1.39.2,0,.37,0,.47.22.29.62.59,1.23.89,1.83.11.22.06.31-.18.37-1.31.34-2.62.72-3.94,1.05-2.04.52-4.08,1.02-6.13,1.51-.24.06-.39.15-.51.37-.46.92-.94,1.82-1.4,2.74-.05.09-.07.2-.11.29Zm23.46,7.78s-.02.07-.03.11c.16.04.32.11.49.11.43,0,.58.21.59.63,0,.35.09.73.25,1.04.17.33.19.56-.11.79-.14.11-.23.27-.34.41.03.03.07.05.1.08.07-.11.15-.22.25-.37.12.34.3.42.62.13-.04.25-.06.41-.09.56.19-.2.26-.39.14-.65-.13-.3-.1-.6.13-.86.32-.37.09-1.3-.35-1.5-.36-.17-.63-.43-.74-.83-.07-.27-.27-.4-.56-.41.13.11.27.22.35.28-.14.22-.25.39-.37.58-.09-.03-.21-.06-.33-.09Zm10.52,2.61c-.06-.32-.22-.41-.45-.43-.3-.03-.47-.21-.47-.49,0-.37-.43-.89-.79-.95-.34-.05-.53-.3-.58-.65-.02-.17-.14-.32-.21-.48-.04.02-.07.04-.11.05.06.13.12.25.15.32-.18.16-.32.29-.49.44-.07-.04-.18-.11-.29-.18-.02.03-.04.07-.06.1.14.09.27.22.42.26.38.08.58.27.59.65,0,.29.5.84.77.87.36.05.48.18.5.56,0,.21.09.35.33.4-.06-.11-.11-.22-.19-.38.32.06.48-.06.48-.39.13.1.23.16.39.28Z"/>
      <path class="cls-1" d="m21.2,36.59c.03-.1.06-.2.11-.29.47-.91.94-1.82,1.4-2.74.11-.22.27-.32.51-.37,2.05-.49,4.09-.99,6.13-1.51,1.32-.34,2.62-.71,3.94-1.05.24-.06.29-.15.18-.37-.3-.61-.6-1.22-.89-1.83-.1-.22-.28-.22-.47-.22-1.3.01-2.41-.46-3.29-1.39-2.24-2.35-1.47-6.21,1.51-7.49,1.61-.69,3.19-.52,4.58.58,1.4,1.11,1.98,2.6,1.69,4.39-.12.74-.4,1.41-.85,2.01-.16.21-.21.39-.09.66.33.75.63,1.53.9,2.3.11.31.24.37.54.28,1.75-.53,3.5-1.05,5.25-1.58,1.42-.43,2.84-.85,4.24-1.33,2.18-.75,4.14-1.93,5.92-3.39.22-.18.44-.37.72-.53-.04.1-.08.2-.12.3-.53,1.28-1.05,2.55-1.58,3.83-.03.07-.06.15-.07.22-.02.52-.29.77-.81.77-.07,0-.13.04-.2.04-.67-.05-.99.42-1.18.92-.13.35-.18.78.09,1.15.07.1.13.24.14.36.01.55.13,1.09-.22,1.62-.13.2-.07.63.07.85.15.25.21.47.22.74.01.44.04.85-.17,1.29-.15.32-.17.81.19,1.15.02.01.04.03.04.05.13.58.58.4.95.4,1.75-.02,3.48.09,5.09.87.48.24.89.56,1.18,1.04.39.64.33,1.86-.33,2.55-.68.7-1.51,1.14-2.39,1.5-1.73.69-3.54.97-5.39,1.06-.45.02-.54.16-.33.56.11.22.21.41.49.5.26.08.37.34.46.58-.03.02-.05.04-.08.06-.11-.14-.22-.29-.34-.45-.07.14-.1.31-.19.36-.09.05-.25-.03-.43-.07.1.2.19.39.28.58-.28-.1-.42-.4-.41-.76.01-.41-.23-.67-.49-.98-.52-.61-1.23-.38-1.84-.55-.28-.08-.58-.11-.9-.16-.02.13-.03.23-.05.43-.11-.22-.17-.35-.25-.5-.17.23-.32.49-.62.13.01.17.02.34.04.53-.25-.19-.26-.43-.06-.88-.82-.39-1.66-.78-2.07-1.69l-.08.03c0,.11-.02.23-.01.34.02.3.03.57-.16.86-.08.12.03.47.17.61.33.35.49,1.1.26,1.52-.11.2-.02.73.15.9.32.32.43,1.13.19,1.52-.14.23-.1.6.07.76.29.28.38,1.14.15,1.47-.22.32-.19.75.04,1.03.07.08.13.2.13.29-.02.43.17.89-.25,1.25-.07.06-.03.26-.04.43.73-.11,1.4-.22,2.07-.3,1.27-.14,2.55-.26,3.82-.4.14-.02.4-.05.41-.1.02-.19.01-.42-.08-.57-.36-.56-.3-1.49-.01-2.1.17-.35.14-.85.05-1.25-.08-.34-.1-.64.08-.95v.74c.25-.18.45-.21.62.14.08-.3.14-.5.21-.77.12.34.04.69-.17.9-.24.25-.29,1-.13,1.31.1.19.14.42.15.63.01.34,0,.69-.04,1.03-.03.21-.15.4-.19.61-.06.27.08.33.34.33,1.64-.01,3.28-.02,4.92-.02.48,0,.71.31.49.73-.74,1.39-.79,2.92-.94,4.43-.02.24-.09.48-.17.71-.12.31-.34.37-.51.09-.23-.38-.41-.81-.54-1.24-.11-.37-.1-.77-.16-1.2-.45.13-.88.23-1.3.36-1.41.43-2.8.89-4.09,1.62-.43.24-.48.33-.38.8.07.32.2.64.29.96.08.3.26.31.51.21.92-.37,1.83-.76,2.76-1.11.35-.13.72-.2,1.09-.27.09-.02.2.04.32.07-.02.08-.03.13-.05.16-.41.42-.62.94-.81,1.48-.26.79-.69,1.47-1.39,2.06-.05-.15-.12-.26-.1-.35.08-.3.19-.59.31-.87.09-.22.24-.43.32-.65.07-.19-.02-.33-.24-.26-.69.23-1.39.47-2.07.73-.11.05-.24.26-.23.39.05.78.13,1.55.21,2.33.02.21.11.29.34.23,1.49-.39,2.58-1.28,3.26-2.65.14-.29.14-.64.2-.96.04-.21.05-.42.11-.62.06-.21.22-.24.34-.06.2.3.39.6.54.92.2.42.36.85.55,1.32-.82.1-1.27.55-1.56,1.22-.18.4-.38.81-.64,1.15-.18.23-.47.42-.74.52-2.38.85-4.77,1.69-7.15,2.52-.68.24-.65.23-.71.94-.22,2.72-.43,5.44-.71,8.16-.15,1.47-.42,2.93-.64,4.4,0,.05-.01.11-.02.21.15-.01.29,0,.4-.04.62-.26,1.24-.53,1.86-.8.23-.1.27-.28.22-.5-.1-.39-.21-.77-.28-1.19.09.1.18.19.26.29.62.73,1.23,1.47,1.86,2.19.23.27.48.58.89.47.4-.11.49-.48.57-.83.07-.31.15-.61.28-.92.06,1.28.53,2.32,1.73,2.81,1.2.49,2.27.11,3.2-.83.48,1.09.94,2.13,1.43,3.25-.24-.04-.43-.05-.62-.1-1.03-.25-2.03-.59-2.97-1.09-.18-.1-.3-.09-.5.03-.28.17-.64.31-.96.31-1.08,0-2.16-.07-3.24-.11-.04,0-.08-.03-.17-.06.86-.32,1.65-.67,2.28-1.31-1.99.21-3.97.34-5.96.09.55-.28,1.11-.54,1.56-1.01-1.33.31-2.61.64-3.91.91-1.3.27-2.62.29-3.95.22.15-.08.3-.16.45-.25,0-.03-.02-.07-.03-.1-.22.01-.45.02-.67.03-.68.02-1.37.12-2.04.04-.79-.09-1.35.36-1.98.65-1.52.69-3.1,1.19-4.73,1.53-.05.01-.11,0-.1,0,2.21-1.47,4.46-2.97,6.71-4.46,0-.02-.02-.04-.02-.06-.05.12-.11.24-.16.36.02.03.03.06.05.09.97-.28,1.95-.56,2.92-.84.02.02.04.04.06.06-.55.59-1.1,1.19-1.65,1.78,0,.02.01.05.02.07.3-.04.6-.06.9-.11.73-.14,1.46-.31,2.19-.46.25-.05.37-.19.45-.43,1.1-3.25,1.89-6.57,2.4-9.96.1-.68.19-1.37.27-2.06.02-.14,0-.28,0-.48-.35.08-.66.17-.97.23-1.68.33-3.37.65-5.05.96-.28.05-.58.05-.87.04-.1,0-.22-.06-.29-.13-.82-.75-1.64-1.51-2.45-2.27-.1-.09-.17-.23-.25-.34.01-.03.02-.06.04-.09.18.02.37,0,.52.08.78.35,1.58.68,2.32,1.1.45.25.85.43,1.37.34.7-.12,1.41-.21,2.12-.32.08-.01.16-.06.27-.11-.12-.2-.25-.36-.32-.54-.06-.15-.05-.33-.08-.5.16,0,.35-.07.48-.02.33.14.66.29.93.51.31.26.63.36,1.02.29.07-.01.13-.02.2-.03.56-.04.98-.22,1-.89,0-.18.14-.35.21-.52.08-.2.02-.28-.21-.28-.62.01-1.25.01-1.87.01-.09,0-.19-.03-.32-.06.18-.41.54-.54.86-.71.38-.2.79-.37,1.18-.54.55-.24.56-.24.47-.93-.25.04-.51.1-.76.13-.74.08-1.48.18-2.22.21-.18,0-.43-.18-.54-.35-.16-.23-.03-.41.26-.47.97-.2,1.94-.41,2.91-.6.31-.06.45-.21.43-.55-.03-.57-.02-1.14-.02-1.71,0-.2-.05-.3-.27-.25-.99.22-1.98.43-2.97.65-.52.11-.83.44-.96.95-.01.05-.03.1-.06.16-.42-.17-.83-.35-1.24-.48-.73-.23-1.48-.2-2.21,0-.12.03-.29.22-.29.34,0,.31.05.62.15.91.03.09.27.15.41.15.57,0,1.14-.05,1.7-.04.37.01.73.13,1.01.55-.5.05-.93.08-1.36.14-.35.05-.7.12-1.05.2-.2.04-.22.12-.11.33.46.85.89,1.72,1.3,2.59.11.22.12.48.18.76-.5.02-.82-.22-1.04-.53-.49-.7-.91-1.45-1.37-2.17-.07-.11-.16-.27-.25-.27-.69-.02-1.37-.01-2.13-.01.23.58.68.94,1.02,1.39-1.13-.63-2.28-1.08-3.63-.56,0-.19,0-.33,0-.47.03-1.32-.22-2.57-.91-3.72-.16-.27-.34-.5-.66-.64-.16-.07-.29-.29-.35-.47-.08-.24.14-.35.32-.44,1.57-.79,3.14-1.58,4.71-2.36.13-.06.25-.13.37-.19-.19-.25-.37-.48-.53-.72-.17-.25-.28-.49-.24-.83.03-.27-.13-.55-.44-.68-.4-.16-.86-.96-.79-1.39.05-.36-.21-.82-.54-.97-.34-.16-.75-1.02-.66-1.41.07-.31-.12-.67-.39-.83-.14-.08-.28-.2-.34-.34-.18-.4-.39-.77-.29-1.27.06-.28-.11-.64-.44-.82-.08-.05-.19-.11-.22-.19-.18-.45-.52-.84-.34-1.41.08-.24-.03-.59-.36-.74-.09-.04-.2-.14-.22-.23-.14-.45-.44-.85-.26-1.4.09-.28-.02-.67-.36-.9-.15-.1-.25-.31-.31-.49-.12-.38-.28-.75-.09-1.19.09-.21,0-.54-.28-.73-.12-.08-.22-.23-.25-.37-.09-.43-.29-.83-.06-1.32.12-.25.04-.68-.28-.93-.19-.14-.35-.4-.54-.43-.19-.02-.42.18-.62.29-.23.12-.46.25-.69.38l-.06-.05Zm10.25,18.7c.14-.04.26-.07.36-.11.77-.28,1.55-.56,2.32-.86.14-.06.35-.25.33-.34-.04-.21-.16-.46-.33-.57-.38-.23-.74-.89-.65-1.33.06-.26-.14-.69-.38-.82-.39-.21-.7-.92-.59-1.34.06-.22-.08-.6-.26-.7-.41-.21-.71-.89-.59-1.35.08-.28-.11-.71-.36-.84-.33-.18-.64-.95-.52-1.32.1-.31,0-.57-.28-.75-.34-.21-.61-.97-.47-1.36.09-.27-.08-.7-.33-.85-.35-.2-.61-.97-.46-1.36.09-.25-.02-.58-.25-.72-.38-.23-.62-.96-.47-1.38.09-.24-.07-.72-.29-.86-.35-.22-.62-.98-.47-1.36.12-.3.03-.58-.25-.75-.28-.17-.58-1.01-.43-1.29.12-.22.12-.46-.03-.58-.18-.13-.41-.3-.7-.17-.7.31-1.42.6-2.13.88-.21.08-.27.21-.28.43-.01.26-.08.52-.16.77-.08.26.05.79.27.97.29.24.5,1.2.34,1.55-.11.24,0,.67.21.83.34.25.61,1.15.46,1.54-.1.26.08.84.3.99.36.23.67,1.09.54,1.51-.09.3.05.68.31.83.34.2.69,1.09.57,1.47-.08.26.15.84.38.96.38.21.72,1.01.7,1.45-.01.24.07.65.23.71.51.22.58.7.81,1.09.05.09.07.21.06.32-.06.53.09.81.54,1.05.07.03.14.09.17.15.2.43.67.78.49,1.35-.02.05.04.12.06.19.09.31.41.38.59.57.35.37.73.77.63,1.41Zm-.29-21.05c-.02-.07-.03-.12-.03-.16-.07-.53-.44-.82-.85-1.07-.07-.04-.2-.03-.29,0-.68.22-1.37.42-2.02.7-.2.09-.36.39-.42.63-.03.12.16.34.3.46.24.2.5.99.38,1.28-.14.33-.05.63.25.81.26.16.54,1,.43,1.29-.13.34,0,.75.3.95.32.21.56.99.41,1.34-.1.24.02.57.26.71.33.18.62,1,.48,1.35-.09.24.06.74.26.86.42.24.68.92.54,1.38-.09.28,0,.53.25.68.39.23.67.91.55,1.36-.08.3.08.7.36.85.35.19.65.95.53,1.33-.08.26.06.58.3.69.36.17.71.93.59,1.3-.09.3.11.73.4.85.31.13.7.92.62,1.24-.13.51.33.96.85.81.7-.2,1.39-.42,2.08-.6.25-.07.31-.16.2-.39-.12-.24-.11-.49-.09-.77.02-.25-.15-.58-.35-.76-.27-.25-.76-1.12-.68-1.48.12-.53-.05-.92-.49-1.22-.1-.06-.18-.17-.22-.28-.11-.25-.21-.51-.3-.78-.04-.11-.05-.24-.03-.36.1-.5.01-.73-.41-1.02-.08-.05-.16-.14-.19-.23-.15-.46-.51-.88-.29-1.42.03-.06,0-.16-.03-.23-.12-.3-.23-.57-.52-.81-.26-.21-.35-.65-.47-1.01-.05-.13-.04-.31.01-.45.11-.32-.01-.68-.2-.79-.48-.27-.53-.75-.7-1.16-.06-.16-.05-.37,0-.54.06-.29-.15-.89-.4-1.05-.35-.23-.69-1.18-.56-1.59.08-.25-.02-.73-.23-.84-.32-.16-.41-.45-.51-.74-.12-.36-.29-.71-.06-1.06Zm8.83,18.28c0-.11-.01-.14-.01-.16-.3-1.8-.56-3.61-.91-5.4-.48-2.47-1.13-4.9-1.9-7.3-.83-2.6-1.8-5.15-2.9-7.65-.1-.22-.22-.24-.41-.18-.54.16-1.08.34-1.63.48-.4.1-.66.25-.8.7-.14.45,0,.87.24,1.06.41.32.47.76.65,1.16.05.12.06.29.03.42-.11.47,0,.77.36,1.05.09.06.17.16.21.25.11.29.21.58.3.88.03.11.03.25-.01.35-.16.4.02.83.26,1,.49.34.52.86.72,1.31.04.09,0,.22-.02.32-.11.39.02.75.35.96.08.05.19.12.21.21.14.48.53.9.3,1.46-.03.06,0,.16.03.23.12.32.27.58.52.84.3.31.38.83.55,1.26,0,.02-.02.06-.02.1-.12.46,0,.74.39,1.03.1.07.18.19.24.31.11.24.22.49.29.75.04.14.03.31,0,.45-.07.28.13.88.38,1.03.4.25.72,1.14.68,1.6-.02.26.07.64.25.77.33.22.47.51.61.84.04.09.21.16.32.16.16,0,.33-.04.49-.1.11-.04.19-.15.25-.19Zm-4.02-29.2c.01-2.19-1.78-3.97-4.01-3.98-2.22,0-4.05,1.75-4.06,3.9-.01,2.15,1.87,4.01,4.09,4.03,2.22.02,3.97-1.72,3.99-3.95Zm6.78,29.11c0,.34.03.65,0,.96-.02.17-.11.36-.22.5-.15.19-.32.69-.19.89.19.29.15.57.06.86-.14.46-.11.91,0,1.4.24-.06.46-.1.67-.16,2.78-.78,5.5-1.73,8.13-2.94,1.03-.47,2.09-.9,2.97-1.64.09-.08.16-.19.25-.3-.67-.2-4.43-.3-4.75-.14.04.24.09.48.13.71-.04,0-.07.02-.11.03-.06-.19-.12-.39-.18-.58-.16.48-.4.26-.65.07.01.26.02.47.03.68-.04,0-.09,0-.13,0-.02-.3-.05-.6-.08-.96-1.97.07-3.94.28-5.93.61Zm2.86-15.3c.07,0,.11,0,.15,0,.92-.19,1.83-.37,2.75-.57.07-.02.14-.12.18-.19.06-.13.14-.27.14-.4,0-.4.08-.86-.09-1.18-.32-.59-.24-1.17-.19-1.78,0-.05.05-.1.08-.14.19-.24.19-.81.03-1.05-.39-.56-.34-1.21-.1-1.75.17-.39.19-.74.19-1.11,0-.4-.37-.65-.76-.57-1,.21-2,.44-3.01.64-.22.05-.35.11-.35.38,0,.19-.11.38-.2.56-.13.25-.05.8.15.98.32.28.46,1.13.25,1.51-.14.26-.08.63.13.82.24.2.42,1.13.28,1.41-.24.48-.19.77.15,1.19.09.11.13.28.15.43.04.27.04.55.07.84Zm-3.87,13.19c.33-.26.51-.85.27-1.05-.44-.36-.25-.82-.3-1.24-.01-.09.06-.21.12-.29.15-.21.12-.61-.07-.78-.29-.27-.4-1.13-.19-1.46.15-.22.08-.74-.12-.91-.3-.25-.47-1.07-.31-1.41.15-.32.1-.6-.16-.86-.25-.25-.35-1.21-.1-1.45.31-.28.38-.67.35-1-.03-.49.27-.82.41-1.22.11-.32.15-.59-.1-.83-.26-.25-.37-1.12-.19-1.41.15-.24.08-.75-.14-.94-.3-.27-.45-1.09-.26-1.45.14-.28.08-.6-.16-.8-.26-.22-.45-1.03-.31-1.34.21-.49.14-.75-.26-1.07-.1-.08-.21-.2-.23-.32-.05-.25-.18-.26-.39-.21-.74.2-1.49.39-2.23.57-.21.05-.23.13-.17.33.64,2.05,1.31,4.09,1.9,6.16.86,3.03,1.53,6.11,2.04,9.22.2,1.24.38,2.49.58,3.76Zm-.82,1.79c-.3-1.99-.56-4-.92-5.98-.39-2.15-.86-4.28-1.35-6.41-.64-2.8-1.49-5.55-2.41-8.28-.07-.2-.17-.24-.35-.19-.32.09-.64.2-.97.26-.27.05-.27.17-.18.37.18.42.35.84.52,1.27,1.18,2.98,2.22,6,3.01,9.1.45,1.77.86,3.55,1.21,5.35.31,1.55.51,3.12.76,4.68.02.1.1.25.17.26.32.07.49-.11.51-.44Zm3.83-14.66c-.25-.53-.39-1.06-.15-1.59.14-.31.12-.75-.13-.99-.28-.27-.4-1.13-.21-1.47.17-.31.11-.63-.15-.87-.25-.23-.4-1.11-.26-1.42.07-.15.09-.32.1-.49.04-.56-.58-.69-.73-1.13-.01-.03-.17-.02-.25,0-.47.1-.93.23-1.4.32-.21.04-.25.13-.24.34,0,.19-.1.4-.21.57-.16.24-.14.73.08.9.38.31.53,1.08.3,1.51-.12.23-.06.58.13.73.37.3.46,1.06.3,1.52-.09.25-.04.65.12.85.31.39.46,1.1.25,1.53-.09.18-.09.43-.05.63.05.25.29.28.51.14.35-.22.7-.44,1.06-.64.31-.17.63-.31.93-.45Zm-.11,2.7s.06.04.09.04c.82.03,1.65.06,2.47.07.11,0,.25-.11.34-.2.17-.16.3-.37.54-.4.04.04.08.09.12.13l-.6.36c.12.1.16.12.19.12,2.07.07,4.15.13,6.22.2.11,0,.23,0,.33-.04.21-.07.3-.16.1-.37-.77-.81-1.55-1.6-2.27-2.45-.39-.46-.84-.52-1.34-.43-.4.07-.91.12-.99.63-.05.33.03.7.14,1.02.14.39.08.85-.27,1.09.08-.27.15-.53.22-.79-.3.27-.39.26-.65-.09-.08.12-.16.23-.24.35-.03-.02-.07-.04-.1-.07.12-.18.23-.37.37-.54.12-.15.15-.64.01-.82-.15-.19-.33-.12-.52-.05-1.14.44-2.29.88-3.43,1.32-.39.15-.74.57-.74.91Zm-6.84,39.98c.21.02.31.04.42.04.42-.01.85-.06,1.27-.04.33.01.45-.13.5-.43.28-1.96.61-3.92.86-5.89.2-1.65.32-3.31.45-4.96.06-.68.07-1.37.11-2.05-.65-.08-.89.11-.92.66-.01.18-.04.35-.06.53-.34,3.47-1.04,6.87-1.99,10.22-.13.46-.26.91-.4,1.39.12.02.2.03.29.05-.16.15-.3.28-.52.48Zm-2.28-25.91s.07.03.11.05c.02.28.03.56.05.84,0,.06.02.13.05.18.15.22.22.52.57.54.08,0,.16.11.21.2.2.33.53.62.39,1.08-.01.04.03.1.05.15.19.41.73.36.97.73.01.02.11,0,.16,0,.52-.1,1.05-.19,1.57-.31.08-.02.15-.12.19-.2.04-.1.07-.22.05-.32-.06-.26-.08-.66-.25-.74-.44-.23-.54-.63-.71-1-.07-.17-.17-.39-.12-.54.15-.4-.11-.69-.23-1-.07-.2-.68-.39-.91-.32-.57.16-1.13.33-1.7.5-.16.05-.32.12-.47.19Zm-1.4,4.32c.76-.09,1.51-.19,2.26-.28.21-.03.47-.08.41-.32-.05-.21-.23-.46-.41-.54-.42-.18-.88-.82-.81-1.27.05-.34-.15-.62-.39-.74-.28-.14-.44-.32-.56-.58-.08-.18-.2-.26-.39-.18-.79.31-1.58.61-2.36.92-.07.03-.17.12-.16.18,0,.09.09.23.15.24.52.07.64.55.89.88.09.11.1.29.14.43.04.15.03.35.12.45.3.29.63.54.96.8.04.03.11.02.15.03Zm-7.92-.03s.01.06.02.09c.21.05.42.13.63.13,1.89-.01,3.79-.04,5.68-.06.22,0,.34-.16.27-.32-.1-.23-.25-.5-.45-.6-.47-.23-.96-.88-.94-1.4.01-.42-.16-.55-.53-.36-1.38.72-2.76,1.44-4.14,2.16-.19.1-.36.24-.54.36Zm16.3,6.59c.06.01.1.03.13.02.07-.02.14-.06.21-.09,1.07-.44,2.14-.86,3.21-1.31.09-.04.19-.2.19-.31.01-.67,0-1.34,0-2,0-.64-.21-.84-.82-.65-.92.29-1.83.62-2.74.96-.33.12-.19.45-.17.68.02.26.26.12.37.08.45-.16.88-.37,1.33-.54.27-.1.54-.18.82-.27,0,.15-.03.22-.08.28-.56.78-1.3,1.33-2.16,1.74-.11.05-.27.15-.28.24-.03.39-.01.79-.01,1.19Zm-.18-7.25s.1.04.15.06c0,.76,0,1.52,0,2.27,0,.15,0,.33.22.28,1.05-.27,2.09-.55,3.13-.84.07-.02.17-.17.15-.24-.2-.75-.41-1.5-.63-2.25-.06-.21-.19-.27-.41-.2-.78.23-1.57.44-2.34.67-.1.03-.18.16-.26.24Zm-12.71,2.49h0c-.48,0-.96,0-1.44,0-.22,0-.28.09-.19.29.17.4.3.82.51,1.2.08.15.32.32.48.31.86-.02,1.71-.09,2.56-.15.21-.01.27-.1.22-.3-.09-.32-.18-.64-.26-.97-.07-.27-.24-.38-.51-.38-.46,0-.91,0-1.37,0Zm6.07-30.42c-.32-.8-.63-1.56-.94-2.32-.07-.18-.18-.17-.35-.08-.35.18-.72.35-1.09.49-.23.08-.25.18-.16.37.28.59.55,1.19.84,1.78.04.09.22.18.31.15.45-.11.9-.25,1.39-.39Zm16.86,7.31s-.02.06-.04.1c.04.06.08.12.13.18.64.69,1.28,1.39,1.93,2.07.5.52.57.5,1.01-.08.32-.42.29-.84-.07-1.23-.5-.53-1.18-.69-1.84-.85-.37-.09-.75-.13-1.13-.18Zm.49,3.81c0-.05-.02-.1-.02-.15-1.53-.04-3.07-.09-4.6-.11-.44,0-.6.2-.67.63-.07.42-.02.5.39.46.88-.08,1.77-.14,2.65-.29.76-.13,1.5-.35,2.25-.54Zm-6.29.85c.43-.02.54.08.55-.47,0-.13.04-.27.08-.39.09-.25-.02-.31-.26-.31-.58,0-1.16-.03-1.73-.05-.77-.02-.6-.08-.64.62-.02.25.07.36.32.39.56.06,1.12.14,1.68.22Zm-6.05,15.14c.42-.1.59-.28.55-.69-.11-1.1-.19-2.21-.29-3.32,0-.08-.09-.19-.15-.21-.33-.08-.51.08-.48.42.1,1.16.2,2.33.31,3.49,0,.1.04.19.06.31Zm13.35-16s-.03-.09-.04-.13c-.18.03-.36.03-.53.09-1.67.6-3.39.91-5.16,1-.1,0-.19.09-.28.14.1.06.2.18.3.18,1.8-.06,3.57-.35,5.24-1.04.16-.07.31-.15.46-.23Zm-13.24,19.99q.64-.11.62-.68c-.02-.68-.04-1.36-.07-2.04,0-.15.03-.35-.21-.33-.21.02-.44.01-.43.36.03.77.03,1.54.04,2.3,0,.12.03.24.05.38Zm11.4-24.08s0,.08-.01.11c.32.04.64.08.96.14.79.13,1.57.31,2.24.79.62.45.7,1.08.2,1.66-.09.11-.21.2-.3.32-.06.07-.09.17-.17.31.14-.02.23,0,.27-.05.3-.3.64-.59.89-.94.32-.44.28-.67-.1-1.07-.17-.18-.38-.35-.6-.47-1.01-.55-2.11-.74-3.24-.85-.05,0-.1.02-.14.04Zm-12.05,18.63c.05-.05.07-.07.07-.08-.07-.79-.13-1.57-.21-2.36,0-.05-.04-.11-.09-.13-.18-.09-.81.19-.87.38-.11.34.13.93.42,1.13.14.09.26.24.35.38.13.21.21.45.32.69Zm8.68-18.15c-.09-.08-.1-.11-.12-.11-1.11.24-2.21.48-3.31.74-.05.01-.11.14-.11.21,0,.15.04.3.08.5,1.15-.45,2.29-.88,3.46-1.34Zm-7.43,26.52c-.55,0-.73.16-.75.64-.01.24-.02.49-.04.73-.03.26.05.45.34.47.27.02.43-.15.45-.39.03-.47,0-.95,0-1.44Zm7.19-30.78c.02.44.04.88.06,1.33.03.01.07.03.1.04.16-.33.35-.24.54-.05.03-.01.06-.03.08-.04-.02-.44-.05-.88-.08-1.4-.33.39-.36.39-.71.12Zm.73,17.22v-1.38c-.32.35-.34.35-.66-.03v1.45c.13-.14.21-.3.33-.33.07-.02.19.16.33.29Zm-14.8-8.39c-.16.29-.28.54-.66.14.07.52.21.9.41,1.18.24-.08.41-.14.65-.23-.12-.33-.26-.71-.4-1.09Zm14.07-10.44c.14-.15.23-.32.32-.32.11,0,.22.15.36.26.05-.44.08-.87-.03-1.36-.28.38-.29.39-.65.05v1.38Zm-15.95,5.23c-.19.49-.24.51-.67.32.14.38.28.76.42,1.14.02-.03.05-.07.07-.1.17-.05.35-.11.58-.18-.11-.33-.25-.72-.41-1.19Zm3.13,10.55c.15.38.3.75.46,1.13.04,0,.07.01.11.02.04-.39.3-.26.58-.24-.17-.42-.31-.78-.48-1.21-.21.45-.23.46-.66.31Zm5.67,14.82c-.6-.06-.73.05-.72.58,0,.06,0,.11,0,.17-.02.19.06.31.26.3.19,0,.44,0,.46-.27.03-.26,0-.52,0-.78Zm-16.55-21.07l.07-.06c-.11-.35-.22-.71-.33-1.09-.13.14-.2.28-.29.29-.1.02-.23-.05-.38-.1.08.4.14.77.41,1.16.11-.37.31-.31.52-.19Zm1.65,4.71s.08.01.12.02c-.14-.34-.27-.69-.41-1.03-.03,0-.07-.01-.1-.02-.03.44-.26.41-.54.23-.02.02-.03.05-.05.07.15.35.29.7.41,1,.23-.11.4-.18.56-.26Zm2.23,4.6c-.15-.28-.32-.61-.49-.93-.03,0-.06,0-.09,0,0,.42-.23.39-.6.24.22.44.39.77.53,1.04.24-.13.4-.22.65-.35Zm2.49,4.45c-.16-.26-.36-.58-.55-.89-.09.36-.23.5-.6.26,0,.04-.01.08-.02.12.2.31.4.63.56.89.24-.15.39-.24.61-.38Zm.26-19.05c.11-.21.15-.4.24-.42.11-.02.25.08.45.16-.14-.41-.27-.77-.44-1.23-.14.42-.3.57-.6.24-.02.03-.03.05-.05.08.13.37.26.74.41,1.17Zm8.54,20c-.17-.38-.33-.73-.49-1.09-.03,0-.06,0-.09,0-.04.37-.2.45-.5.21l-.06.07c.15.36.31.72.48,1.11.08-.2.11-.39.19-.43.09-.04.25.06.47.12Zm-4.11-10.07c-.15-.37-.3-.74-.46-1.15-.11.18-.16.34-.25.38-.09.03-.22-.06-.43-.14.16.42.3.79.44,1.16.17-.49.25-.51.7-.25Zm-2.33-6.2c-.22.4-.23.4-.71.19.16.42.29.77.42,1.13.12-.16.19-.34.29-.35.11-.01.24.11.44.22-.16-.44-.3-.81-.44-1.18Zm3.26,10.37l-.06.06c.15.36.3.72.47,1.1.11-.19.15-.37.24-.41.08-.03.23.08.43.17-.16-.41-.31-.77-.45-1.12l-.1-.06c-.03.5-.26.43-.53.25Zm7.44-16.33l-.06.05c.06.35.12.7.16.97.28-.03.48-.05.72-.07-.05-.32-.1-.66-.15-1-.03-.01-.06-.02-.09-.03-.14.39-.35.27-.57.09Zm4.45,3.53c-.44-.22-3.23.41-3.47.78,1.15-.26,2.29-.51,3.47-.78Zm-6.7,7.09c-.05-.29-.11-.62-.17-.95-.03-.02-.06-.05-.09-.07-.13.37-.33.39-.63.21.06.32.12.65.17.92.28-.04.47-.07.72-.11Zm4.55-1.89s0-.01,0-.02c.04,0,.1.01.13,0,.1-.05.19-.11.28-.16-.09-.05-.17-.12-.26-.13-.6-.08-1.21-.15-1.81-.21-.09,0-.19.06-.28.09.08.06.15.16.23.18.57.1,1.14.17,1.71.26Zm-5.48-7.13c.28-.04.48-.06.72-.09-.06-.3-.12-.63-.17-.95-.2.28-.41.27-.73.06.07.41.13.72.18.98Zm1.18,4.77c.11-.06.27-.1.32-.19.34-.63.92-.97,1.51-1.31.09-.05.14-.15.21-.23l-.08-.07c-.8.41-1.65.78-1.95,1.8Zm-16.52,3.62c-.14-.39-.26-.73-.38-1.07-.17.31-.37.38-.66.18-.02.02-.03.05-.05.07.13.34.26.68.39,1.02.11-.17.16-.33.26-.37.08-.03.22.08.43.18Zm16.01,4.42c.02.33.03.66.05.94.26-.02.45-.03.72-.05-.02-.28-.05-.61-.07-.94-.03-.01-.06-.02-.09-.03-.16.31-.35.29-.61.08Zm-18.4-10.35s-.06.06-.08.09c.08.36.16.72.25,1.08.24-.43.31-.45.72-.17-.08-.35-.17-.7-.25-1.05-.22.25-.37.45-.63.04Zm6.67,15.24c-.23-.39-.41-.73-.6-1.06-.08.41-.29.43-.59.27-.02.02-.03.05-.05.07.18.32.36.64.55.96.1-.19.13-.36.23-.41.07-.04.22.07.46.16Zm-3.51-5.43c.15.42.25.77.49,1.06.08-.15.11-.32.19-.36.09-.04.24.06.45.12-.17-.38-.32-.71-.46-1.04-.19.4-.25.42-.68.22Zm5.92,2.66c.17.35.31.65.43.9.25-.11.42-.19.65-.29-.11-.25-.24-.56-.4-.94-.19.44-.2.44-.67.33Zm-3.27-8.47c.11.31.22.61.31.85.27-.09.46-.15.69-.22-.1-.28-.21-.58-.32-.88-.17.31-.37.36-.69.25Zm1.64,4.2s-.04.06-.06.09c.12.3.24.6.34.85.26-.09.44-.16.69-.26-.12-.28-.24-.58-.36-.87-.03,0-.06,0-.08,0-.07.31-.22.43-.52.19Zm-3.04-8.6s-.04.05-.06.07c.11.3.22.61.31.85.27-.07.45-.12.69-.19-.09-.28-.2-.58-.3-.89-.03,0-.06,0-.09-.01-.1.32-.29.36-.54.17Zm16.87-.05c.28-.45.32-.46.73-.08-.05-.43-.09-.77-.13-1.11-.02-.02-.05-.03-.07-.05-.14.38-.37.3-.66.1.05.4.09.73.13,1.14Zm-12.01,19.87c-.2-.28-.4-.56-.59-.85-.03,0-.06,0-.08,0,.02.41-.18.45-.52.39l.61.89c.06-.45.11-.49.58-.44Zm12.08-24.89c-.06-.33-.11-.67-.17-1-.03-.03-.06-.05-.09-.08-.1.43-.31.4-.63.12.07.43.12.75.17,1.07.29-.35.35-.36.73-.11Zm-3.51-.3s-.07-.02-.1-.03c-.1.39-.31.32-.55.12-.02.02-.04.04-.06.06.06.32.12.63.18.95.26-.36.36-.37.72-.11-.07-.33-.13-.66-.2-.99Zm.25,5.66c.13-.09.23-.22.33-.21.11,0,.22.12.4.22-.05-.36-.1-.69-.15-1.01-.03-.01-.05-.02-.08-.04-.17.3-.37.31-.65.12.05.32.1.64.14.91Zm.78,8.11s-.07-.03-.1-.04c-.15.35-.35.31-.62.12.04.32.07.65.12,1.04.32-.42.35-.42.72-.06-.04-.4-.08-.73-.11-1.05Zm-.33,4.74v.94c.14-.08.24-.2.34-.2.1,0,.19.13.33.23v-1.05c-.23.2-.41.4-.66.08Zm-7.78,1.62s-.08-.02-.11-.02c-.02.4-.25.36-.51.26-.02.03-.04.05-.05.08.14.29.29.57.43.86.16-.42.22-.45.68-.22-.17-.37-.3-.66-.43-.95Zm-4.97-12.67s-.07-.02-.1-.03c-.09.36-.3.34-.56.17l-.05.07c.11.29.22.58.33.87.2-.4.26-.42.69-.2-.1-.3-.21-.59-.31-.89Zm2.55,8.72s-.05.04-.08.06c.12.3.25.59.41.97.16-.52.2-.53.63-.38-.13-.29-.25-.57-.38-.86-.03,0-.06,0-.09.01-.06.34-.25.34-.49.2Zm9.18-7.12v1.14c.21-.37.42-.38.74.01-.03-.42-.05-.72-.08-1.08-.25.28-.45.32-.66-.08Zm-10.22,2.69s-.06-.02-.09-.04c-.09.31-.27.38-.63.19.15.39.26.68.4,1.05.17-.49.19-.5.67-.29-.13-.34-.24-.63-.35-.92Zm5.42,13.53s.07,0,.11,0c-.02-.38.13-.5.49-.3l.03-.08c-.16-.26-.32-.53-.48-.79h-.08c-.02.35-.21.42-.6.28.22.36.38.62.54.88Zm-8.97-22.02s-.03.04-.05.06c.09.29.19.59.29.9.13-.15.2-.3.28-.31.11-.02.24.07.43.14-.11-.34-.21-.64-.31-.94-.17.32-.37.35-.64.15Zm15.7,4.38l.07.1c.77,0,1.24-.4,1.16-1.07-.44.34-.83.65-1.23.96Zm-4.04,13.42c-.14-.31-.25-.55-.36-.79-.03,0-.06-.02-.09-.03-.03.45-.24.42-.55.25.06.24.11.54.27.63.15.09.43-.03.72-.07Zm3.15-.08c-.03.35,0,.68.53.84.03-.36.05-.69.08-1.03-.24.08-.41.13-.61.19Zm-6.39,1.91c-.11-.14-.21-.39-.37-.44-.14-.05-.36.11-.54.17.09.22.17.44.24.63.25-.13.43-.23.67-.36Zm6.76-14.23l-.07.09c.04.08.07.18.13.23.3.24.61.46.93.68.06.04.18.01.26.02-.04-.09-.06-.2-.13-.25-.24-.21-.49-.41-.74-.6-.11-.08-.26-.11-.39-.17Zm1.85-1.41c.71-.08.96-.27.94-.59-.17-.04-.33-.09-.48-.1-.08,0-.21.03-.24.08-.09.17-.13.37-.21.6Zm.33,2.43v-.86c-.24.39-.42.3-.61.02-.05.19-.15.44-.07.52.16.15.41.2.68.32Zm-3.56-11.12c-.04-.11-.07-.4-.15-.41-.19-.03-.42.03-.58.14-.07.05.02.31.03.43.25-.06.43-.1.69-.16Zm2.69-.64c.25-.05.43-.09.67-.14-.01-.12-.03-.28-.06-.52-.26.09-.49.14-.67.26-.05.04.04.29.06.39Zm-19.97,5.57c-.22.11-.43.19-.61.3-.06.04-.11.18-.09.24.02.06.15.13.22.12.41-.07.56-.21.48-.67Zm19.26,5.19c-.02.06-.04.11-.07.17.24.13.47.27.71.4.05-.15.11-.31.19-.52-.32-.02-.57-.03-.83-.04Zm-.8-1.48c-.18-.1-.32-.17-.44-.24-.1.24-.2.47-.3.7.48.2.55-.21.74-.46Zm1.16.94s.01.08.02.13c.17,0,.34,0,.51,0,.32,0,.36-.06.28-.44-.27.11-.54.21-.81.31Zm-12.06-7.21s-.09-.16-.13-.15c-.19.04-.37.12-.55.2,0,0,.04.15.05.16.23-.07.4-.13.63-.21Zm18.37,4.25c0-.06-.02-.12-.03-.19-.21.03-.41.06-.62.09,0,.05.01.1.02.14.21-.02.42-.03.63-.05Z"/>
      <path class="cls-1" d="m44.66,44.37c.12.03.24.07.33.09.12-.19.23-.36.37-.58-.08-.07-.22-.18-.35-.28.29,0,.49.13.56.41.11.4.39.67.74.83.44.21.68,1.13.35,1.5-.23.26-.26.56-.13.86.11.26.05.46-.14.65.02-.16.05-.31.09-.56-.32.28-.51.2-.62-.13-.1.15-.18.26-.25.37-.03-.03-.07-.05-.1-.08.11-.14.2-.31.34-.41.3-.23.28-.46.11-.79-.16-.31-.24-.69-.25-1.04,0-.42-.16-.63-.59-.63-.16,0-.32-.07-.49-.11.01-.04.02-.07.03-.11Zm1.34,1.81c.12-.11.22-.27.32-.28.11,0,.22.15.32.23.03,0,.06,0,.09-.01-.08-.36-.16-.72-.24-1.08-.04,0-.08-.01-.12-.02-.07.34-.27.39-.59.27.08.33.15.61.22.89Z"/>
      <path class="cls-1" d="m55.19,46.98c-.16-.12-.26-.19-.39-.28,0,.33-.16.45-.48.39.08.16.14.27.19.38-.23-.04-.32-.19-.33-.4-.02-.38-.14-.51-.5-.56-.28-.04-.76-.59-.77-.87-.01-.38-.21-.57-.59-.65-.15-.03-.28-.17-.42-.26.02-.03.04-.07.06-.1.11.07.22.13.29.18.17-.15.31-.28.49-.44-.03-.06-.09-.19-.15-.32.04-.02.07-.04.11-.05.07.16.19.31.21.48.04.35.24.6.58.65.36.06.8.58.79.95,0,.27.17.46.47.49.23.02.39.1.45.43Zm-1.61-.64s.06,0,.08,0c-.07-.38.13-.46.47-.47-.17-.19-.34-.37-.59-.64,0,.39-.18.49-.53.46.23.27.4.46.57.66Z"/>
      <path class="cls-2" d="m31.46,55.29c.1-.64-.28-1.04-.63-1.41-.18-.19-.5-.26-.59-.57-.02-.06-.08-.14-.06-.19.18-.58-.28-.92-.49-1.35-.03-.06-.11-.12-.17-.15-.45-.23-.6-.52-.54-1.05.01-.1-.01-.23-.06-.32-.23-.39-.3-.87-.81-1.09-.15-.07-.24-.47-.23-.71.02-.44-.32-1.25-.7-1.45-.23-.13-.46-.7-.38-.96.12-.38-.23-1.27-.57-1.47-.26-.15-.4-.53-.31-.83.13-.42-.18-1.28-.54-1.51-.22-.14-.4-.73-.3-.99.15-.39-.12-1.29-.46-1.54-.22-.16-.33-.59-.21-.83.16-.35-.05-1.31-.34-1.55-.22-.18-.35-.71-.27-.97.08-.25.15-.51.16-.77,0-.22.06-.34.28-.43.72-.28,1.43-.57,2.13-.88.3-.13.52.03.7.17.16.11.16.35.03.58-.16.29.15,1.12.43,1.29.28.17.37.45.25.75-.15.37.12,1.14.47,1.36.22.13.38.61.29.86-.16.42.09,1.15.47,1.38.23.14.34.47.25.72-.15.39.11,1.15.46,1.36.25.15.42.58.33.85-.13.39.13,1.15.47,1.36.28.18.38.44.28.75-.12.36.19,1.14.52,1.32.26.14.44.56.36.84-.12.45.18,1.14.59,1.35.18.09.33.47.26.7-.12.42.19,1.13.59,1.34.24.13.44.55.38.82-.1.44.27,1.1.65,1.33.17.1.29.36.33.57.02.09-.19.29-.33.34-.77.3-1.54.58-2.32.86-.11.04-.22.07-.36.11Z"/>
      <path class="cls-2" d="m31.17,34.25c-.24.35-.06.71.06,1.06.1.3.19.58.51.74.21.11.31.59.23.84-.13.4.2,1.36.56,1.59.25.16.46.77.4,1.05-.04.17-.06.39,0,.54.17.42.21.89.7,1.16.19.11.31.47.2.79-.05.14-.06.32-.01.45.13.35.21.79.47,1.01.29.24.4.51.52.81.03.07.06.16.03.23-.22.54.14.96.29,1.42.03.09.11.17.19.23.42.29.52.52.41,1.02-.02.11,0,.25.03.36.09.26.19.53.3.78.05.11.13.22.22.28.44.3.61.69.49,1.22-.08.36.41,1.23.68,1.48.2.18.37.51.35.76-.02.28-.03.52.09.77.11.23.05.33-.2.39-.7.19-1.39.41-2.08.6-.52.15-.98-.3-.85-.81.08-.32-.31-1.11-.62-1.24-.29-.12-.49-.55-.4-.85.11-.37-.23-1.13-.59-1.3-.24-.11-.38-.43-.3-.69.12-.38-.18-1.14-.53-1.33-.27-.15-.44-.54-.36-.85.12-.45-.16-1.12-.55-1.36-.25-.15-.34-.4-.25-.68.14-.46-.12-1.14-.54-1.38-.2-.12-.35-.62-.26-.86.14-.35-.16-1.16-.48-1.35-.24-.13-.36-.46-.26-.71.15-.35-.09-1.13-.41-1.34-.31-.2-.44-.61-.3-.95.12-.29-.16-1.13-.43-1.29-.3-.18-.39-.47-.25-.81.12-.29-.14-1.08-.38-1.28-.14-.12-.33-.34-.3-.46.06-.24.22-.54.42-.63.65-.28,1.34-.48,2.02-.7.09-.03.22-.04.29,0,.41.26.78.55.85,1.07,0,.04.02.09.03.16Z"/>
      <path class="cls-2" d="m40,52.52c-.06.04-.14.15-.25.19-.15.06-.32.11-.49.1-.11,0-.28-.08-.32-.16-.14-.33-.28-.62-.61-.84-.18-.12-.27-.51-.25-.77.04-.47-.29-1.35-.68-1.6-.25-.16-.45-.75-.38-1.03.04-.14.04-.31,0-.45-.07-.26-.18-.5-.29-.75-.05-.12-.14-.24-.24-.31-.4-.29-.52-.57-.39-1.03,0-.03.03-.07.02-.1-.17-.43-.25-.94-.55-1.26-.25-.26-.4-.53-.52-.84-.03-.07-.05-.16-.03-.23.23-.56-.16-.98-.3-1.46-.02-.08-.13-.15-.21-.21-.33-.21-.46-.57-.35-.96.03-.1.06-.24.02-.32-.2-.45-.24-.97-.72-1.31-.24-.17-.42-.59-.26-1,.04-.1.04-.24.01-.35-.08-.3-.19-.59-.3-.88-.04-.1-.12-.19-.21-.25-.37-.28-.47-.58-.36-1.05.03-.13.02-.3-.03-.42-.18-.4-.23-.84-.65-1.16-.25-.19-.38-.61-.24-1.06.14-.45.4-.6.8-.7.55-.14,1.09-.31,1.63-.48.2-.06.32-.04.41.18,1.11,2.5,2.07,5.05,2.9,7.65.77,2.4,1.42,4.83,1.9,7.3.35,1.79.61,3.6.91,5.4,0,.02,0,.04.01.16Z"/>
      <path class="cls-2" d="m35.99,23.32c-.01,2.23-1.76,3.97-3.99,3.95-2.22-.02-4.1-1.87-4.09-4.03.01-2.16,1.84-3.91,4.06-3.9,2.23,0,4.02,1.79,4.01,3.98Zm-1.46,2.19s.06.05.09.07c.07-.1.18-.19.21-.31.14-.47.3-.94.37-1.41.09-.55.04-1.11-.24-1.62-.19-.34-.6-.49-.94-.37-.34.12-.56.48-.52.84.05.38.29.61.74.61.35,0,.45.16.46.46,0,.14.02.29,0,.43-.05.44-.12.87-.18,1.31Zm-2.34-3.66c.54.01.96-.39.97-.92,0-.5-.41-.94-.92-.95-.5-.01-.94.41-.96.91-.02.51.4.95.91.96Z"/>
      <path class="cls-2" d="m42.77,52.43c1.99-.33,3.97-.54,5.93-.61.03.36.05.66.08.96.04,0,.09,0,.13,0,0-.21-.02-.42-.03-.68.25.19.49.41.65-.07.06.19.12.39.18.58.04,0,.07-.02.11-.03-.04-.24-.09-.48-.13-.71.32-.16,4.08-.06,4.75.14-.09.11-.16.22-.25.3-.88.75-1.94,1.17-2.97,1.64-2.63,1.21-5.35,2.15-8.13,2.94-.21.06-.43.1-.67.16-.11-.49-.14-.95,0-1.4.09-.3.13-.57-.06-.86-.13-.19.04-.7.19-.89.11-.14.2-.32.22-.5.04-.31,0-.62,0-.96Z"/>
      <path class="cls-2" d="m45.63,37.13c-.02-.29-.03-.57-.07-.84-.02-.15-.06-.32-.15-.43-.34-.42-.39-.7-.15-1.19.14-.28-.04-1.2-.28-1.41-.22-.18-.28-.55-.13-.82.21-.38.07-1.23-.25-1.51-.21-.18-.28-.73-.15-.98.09-.18.2-.37.2-.56,0-.27.13-.33.35-.38,1-.21,2-.43,3.01-.64.38-.08.75.17.76.57,0,.37-.01.73-.19,1.11-.24.54-.29,1.19.1,1.75.16.24.16.82-.03,1.05-.03.04-.07.09-.08.14-.05.6-.13,1.18.19,1.78.17.32.09.78.09,1.18,0,.13-.07.27-.14.4-.04.08-.11.18-.18.19-.91.2-1.83.38-2.75.57-.04,0-.08,0-.15,0Z"/>
      <path class="cls-2" d="m41.76,50.32c-.2-1.27-.38-2.52-.58-3.76-.51-3.11-1.17-6.19-2.04-9.22-.59-2.06-1.26-4.11-1.9-6.16-.06-.19-.04-.28.17-.33.75-.18,1.49-.37,2.23-.57.21-.05.33-.04.39.21.03.12.13.24.23.32.4.33.47.58.26,1.07-.13.31.06,1.12.31,1.34.24.2.31.53.16.8-.19.36-.04,1.19.26,1.45.22.19.29.7.14.94-.18.29-.07,1.16.19,1.41.25.24.21.51.1.83-.14.4-.44.73-.41,1.22.02.33-.05.72-.35,1-.25.23-.16,1.19.1,1.45.26.26.31.54.16.86-.17.34.01,1.16.31,1.41.2.17.27.69.12.91-.22.33-.11,1.19.19,1.46.19.17.21.57.07.78-.06.09-.13.2-.12.29.05.42-.14.88.3,1.24.24.2.06.79-.27,1.05Z"/>
      <path class="cls-2" d="m40.94,52.11c-.02.33-.2.51-.51.44-.07-.02-.16-.17-.17-.26-.26-1.56-.46-3.13-.76-4.68-.35-1.79-.76-3.58-1.21-5.35-.79-3.1-1.83-6.13-3.01-9.1-.17-.42-.34-.85-.52-1.27-.09-.2-.08-.32.18-.37.33-.06.65-.17.97-.26.18-.05.29,0,.35.19.93,2.72,1.77,5.47,2.41,8.28.49,2.13.95,4.26,1.35,6.41.36,1.98.62,3.99.92,5.98Z"/>
      <path class="cls-2" d="m44.77,37.45c-.3.15-.62.28-.93.45-.36.2-.71.42-1.06.64-.22.14-.46.11-.51-.14-.04-.2-.04-.46.05-.63.21-.43.06-1.15-.25-1.53-.16-.2-.2-.6-.12-.85.16-.46.07-1.22-.3-1.52-.18-.15-.25-.5-.13-.73.23-.43.08-1.2-.3-1.51-.22-.18-.24-.66-.08-.9.11-.17.21-.38.21-.57,0-.21.04-.3.24-.34.47-.1.93-.22,1.4-.32.08-.02.24-.03.25,0,.16.44.78.57.73,1.13-.01.17-.03.34-.1.49-.13.31.01,1.19.26,1.42.26.24.31.56.15.87-.19.35-.06,1.2.21,1.47.25.24.27.68.13.99-.23.53-.1,1.05.15,1.59Z"/>
      <path class="cls-2" d="m44.67,40.15c0-.34.35-.76.74-.91,1.14-.44,2.29-.88,3.43-1.32.19-.07.37-.14.52.05.14.18.11.67-.01.82-.14.17-.24.36-.37.54.03.02.07.04.1.07.08-.11.16-.23.24-.35.26.36.35.36.65.09-.07.26-.15.52-.22.79.35-.24.41-.7.27-1.09-.12-.32-.2-.7-.14-1.02.08-.51.59-.56.99-.63.5-.09.95-.02,1.34.43.72.85,1.5,1.65,2.27,2.45.2.21.11.3-.1.37-.1.03-.22.04-.33.04-2.07-.06-4.15-.13-6.22-.2-.03,0-.06-.02-.19-.12l.6-.36s-.08-.09-.12-.13c-.24.03-.37.24-.54.4-.09.09-.23.2-.34.2-.83,0-1.65-.04-2.47-.07-.03,0-.06-.02-.09-.04Z"/>
      <path class="cls-2" d="m37.83,80.13c.21-.2.35-.33.52-.48-.09-.01-.17-.03-.29-.05.14-.48.27-.94.4-1.39.95-3.35,1.66-6.75,1.99-10.22.02-.18.05-.35.06-.53.04-.55.27-.74.92-.66-.03.68-.05,1.37-.11,2.05-.14,1.66-.25,3.31-.45,4.96-.24,1.97-.57,3.93-.86,5.89-.04.31-.17.44-.5.43-.42-.01-.85.03-1.27.04-.1,0-.21-.02-.42-.04Z"/>
      <path class="cls-2" d="m35.55,54.22c.16-.06.31-.14.47-.19.56-.17,1.13-.34,1.7-.5.23-.07.84.12.91.32.12.32.37.6.23,1-.05.15.04.37.12.54.17.38.26.78.71,1,.17.09.19.48.25.74.02.1,0,.22-.05.32-.04.08-.11.19-.19.2-.52.11-1.05.21-1.57.31-.05.01-.15.03-.16,0-.24-.36-.78-.31-.97-.73-.02-.05-.07-.11-.05-.15.14-.46-.19-.75-.39-1.08-.05-.08-.14-.19-.21-.2-.36-.02-.42-.31-.57-.54-.03-.05-.05-.12-.05-.18-.02-.28-.03-.56-.05-.84-.04-.02-.07-.03-.11-.05Z"/>
      <path class="cls-2" d="m34.15,58.54s-.12,0-.15-.03c-.33-.26-.66-.51-.96-.8-.1-.09-.08-.29-.12-.45-.04-.15-.05-.32-.14-.43-.25-.33-.37-.81-.89-.88-.06,0-.14-.15-.15-.24,0-.05.09-.15.16-.18.79-.31,1.58-.62,2.36-.92.2-.08.31,0,.39.18.11.26.28.44.56.58.24.12.45.4.39.74-.07.46.38,1.09.81,1.27.19.08.36.33.41.54.06.25-.2.3-.41.32-.75.09-1.5.18-2.26.28Z"/>
      <path class="cls-2" d="m26.23,58.51c.18-.12.35-.26.54-.36,1.38-.73,2.76-1.45,4.14-2.16.36-.19.54-.06.53.36-.02.52.48,1.17.94,1.4.2.1.35.38.45.6.07.16-.04.32-.27.32-1.89.02-3.79.05-5.68.06-.21,0-.42-.08-.63-.13,0-.03-.01-.06-.02-.09Z"/>
      <path class="cls-2" d="m42.53,65.1c0-.39-.02-.79.01-1.19,0-.09.17-.19.28-.24.86-.41,1.6-.96,2.16-1.74.04-.06.08-.13.08-.28-.27.09-.55.17-.82.27-.45.17-.88.38-1.33.54-.11.04-.35.18-.37-.08-.02-.23-.16-.55.17-.68.91-.34,1.82-.67,2.74-.96.61-.19.82.01.82.65,0,.67.02,1.34,0,2,0,.11-.1.27-.19.31-1.06.45-2.14.88-3.21,1.31-.07.03-.14.07-.21.09-.03,0-.06,0-.13-.02Z"/>
      <path class="cls-2" d="m42.35,57.85c.09-.08.16-.21.26-.24.78-.23,1.56-.44,2.34-.67.22-.06.35,0,.41.2.22.75.43,1.49.63,2.25.02.06-.08.22-.15.24-1.04.29-2.08.57-3.13.84-.22.06-.22-.13-.22-.28,0-.76,0-1.52,0-2.27-.05-.02-.1-.04-.15-.06Z"/>
      <path class="cls-2" d="m29.64,60.35c.46,0,.91,0,1.37,0,.27,0,.44.11.51.38.08.32.17.65.26.97.06.2,0,.29-.22.3-.85.05-1.71.13-2.56.15-.16,0-.4-.16-.48-.31-.21-.38-.34-.8-.51-1.2-.09-.2-.03-.29.19-.29.48,0,.96,0,1.44,0h0Z"/>
      <path class="cls-2" d="m35.71,29.92c-.49.14-.94.28-1.39.39-.09.02-.26-.07-.31-.15-.29-.59-.56-1.19-.84-1.78-.09-.19-.07-.29.16-.37.38-.13.74-.3,1.09-.49.17-.09.27-.1.35.08.31.76.62,1.52.94,2.32Z"/>
      <path class="cls-2" d="m52.58,37.23c.38.06.76.09,1.13.18.66.17,1.34.32,1.84.85.36.39.39.81.07,1.23-.44.58-.52.6-1.01.08-.65-.68-1.29-1.38-1.93-2.07-.05-.05-.09-.12-.13-.18.01-.03.02-.06.04-.1Z"/>
      <path class="cls-2" d="m53.07,41.03c-.75.18-1.49.41-2.25.54-.88.14-1.76.21-2.65.29-.41.04-.46-.04-.39-.46.07-.43.23-.63.67-.63,1.53.02,3.07.07,4.6.11,0,.05.02.1.02.15Z"/>
      <path class="cls-2" d="m46.78,41.88c-.56-.07-1.12-.15-1.68-.22-.25-.03-.34-.14-.32-.39.05-.7-.13-.65.64-.62.58.02,1.16.04,1.73.05.23,0,.34.06.26.31-.04.12-.08.26-.08.39,0,.55-.11.46-.55.47Z"/>
      <path class="cls-2" d="m40.73,57.02c-.03-.12-.06-.21-.06-.31-.1-1.16-.21-2.33-.31-3.49-.03-.34.14-.5.48-.42.07.01.15.13.15.21.1,1.11.18,2.21.29,3.32.04.41-.13.59-.55.69Z"/>
      <path class="cls-2" d="m54.08,41.03c-.15.08-.3.16-.46.23-1.68.69-3.44.98-5.24,1.04-.1,0-.2-.11-.3-.18.09-.05.19-.13.28-.14,1.77-.09,3.49-.39,5.16-1,.17-.06.35-.06.53-.09.01.04.03.09.04.13Z"/>
      <path class="cls-2" d="m40.85,61.02c-.02-.14-.05-.26-.05-.38-.01-.77-.01-1.54-.04-2.3-.01-.35.22-.34.43-.36.24-.02.21.18.21.33.03.68.04,1.36.07,2.04q.02.56-.62.68Z"/>
      <path class="cls-2" d="m52.25,36.94s.1-.04.14-.04c1.13.11,2.23.31,3.24.85.22.12.43.28.6.47.37.4.41.63.1,1.07-.25.35-.58.63-.89.94-.04.04-.12.02-.27.05.07-.14.11-.23.17-.31.09-.11.2-.21.3-.32.49-.58.42-1.21-.2-1.66-.67-.49-1.44-.67-2.24-.79-.32-.05-.64-.09-.96-.14,0-.04,0-.08.01-.11Z"/>
      <path class="cls-2" d="m40.2,55.57c-.11-.24-.2-.48-.32-.69-.09-.15-.21-.29-.35-.38-.3-.2-.54-.79-.42-1.13.06-.19.69-.47.87-.38.04.02.08.08.09.13.07.79.14,1.57.21,2.36,0,.01-.02.03-.07.08Z"/>
      <path class="cls-2" d="m48.89,37.42c-1.17.45-2.31.89-3.46,1.34-.03-.2-.07-.35-.08-.5,0-.07.06-.19.11-.21,1.1-.25,2.21-.5,3.31-.74.01,0,.03.03.12.11Z"/>
      <path class="cls-2" d="m41.46,63.94c0,.49.02.97,0,1.44-.01.24-.18.41-.45.39-.28-.02-.36-.21-.34-.47.03-.24.03-.49.04-.73.02-.48.2-.64.75-.64Z"/>
      <path class="cls-2" d="m48.65,33.16c.36.27.38.26.71-.12.03.52.05.96.08,1.4-.03.01-.06.03-.08.04-.19-.18-.38-.28-.54.05-.03-.01-.07-.03-.1-.04-.02-.44-.04-.88-.06-1.33Z"/>
      <path class="cls-2" d="m49.38,50.38c-.14-.13-.26-.31-.33-.29-.12.03-.2.19-.33.33v-1.45c.32.38.34.38.66.03v1.38Z"/>
      <path class="cls-2" d="m34.58,41.99c.14.38.28.76.4,1.09-.24.08-.41.14-.65.23-.2-.28-.33-.66-.41-1.18.38.4.49.15.66-.14Z"/>
      <path class="cls-2" d="m48.65,31.55v-1.38c.36.34.37.34.65-.05.11.49.08.92.03,1.36-.14-.11-.25-.26-.36-.26-.09,0-.18.18-.32.32Z"/>
      <path class="cls-2" d="m32.7,36.79c.16.47.3.85.41,1.19-.24.07-.41.12-.58.18-.02.03-.05.07-.07.1-.14-.38-.28-.76-.42-1.14.44.19.48.17.67-.32Z"/>
      <path class="cls-2" d="m35.83,47.34c.43.16.46.15.66-.31.17.43.32.79.48,1.21-.28-.02-.54-.15-.58.24-.04,0-.07-.01-.11-.02-.15-.38-.3-.75-.46-1.13Z"/>
      <path class="cls-2" d="m41.5,62.16c0,.26.02.52,0,.78-.03.27-.27.26-.46.27-.19,0-.28-.11-.26-.3,0-.06,0-.11,0-.17,0-.53.12-.64.72-.58Z"/>
      <path class="cls-2" d="m24.95,41.1c-.21-.11-.41-.18-.52.19-.28-.38-.33-.76-.41-1.16.15.04.28.12.38.1.09-.02.15-.15.29-.29.12.38.22.74.33,1.09l-.07.06Z"/>
      <path class="cls-2" d="m26.6,45.81c-.17.08-.33.15-.56.26-.12-.3-.27-.65-.41-1,.02-.02.03-.05.05-.07.28.18.51.22.54-.23.03,0,.07.01.1.02.14.34.27.69.41,1.03-.04,0-.08-.01-.12-.02Z"/>
      <path class="cls-2" d="m28.82,50.41c-.24.13-.41.22-.65.35-.14-.28-.31-.61-.53-1.04.37.15.61.18.6-.24.03,0,.06,0,.09,0,.17.33.34.65.49.93Z"/>
      <path class="cls-2" d="m31.32,54.87c-.22.14-.37.23-.61.38-.16-.26-.36-.57-.56-.89,0-.04.01-.08.02-.12.37.24.51.1.6-.26.19.31.39.62.55.89Z"/>
      <path class="cls-2" d="m31.58,35.81c-.15-.43-.28-.8-.41-1.17.02-.03.03-.05.05-.08.3.33.46.18.6-.24.17.47.29.83.44,1.23-.2-.08-.34-.19-.45-.16-.08.02-.12.21-.24.42Z"/>
      <path class="cls-2" d="m40.12,55.81c-.22-.07-.37-.17-.47-.12-.09.04-.11.22-.19.43-.17-.39-.32-.75-.48-1.11l.06-.07c.3.24.46.16.5-.21.03,0,.06,0,.09,0,.16.35.32.71.49,1.09Z"/>
      <path class="cls-2" d="m36,45.74c-.45-.26-.52-.24-.7.25-.14-.37-.28-.73-.44-1.16.21.07.34.17.43.14.09-.03.13-.19.25-.38.16.41.31.78.46,1.15Z"/>
      <path class="cls-2" d="m33.67,39.53c.14.37.28.75.44,1.18-.2-.11-.33-.23-.44-.22-.09.01-.16.19-.29.35-.13-.36-.27-.71-.42-1.13.48.21.49.21.71-.19Z"/>
      <path class="cls-2" d="m36.93,49.9c.27.18.5.26.53-.25l.1.06c.14.36.28.71.45,1.12-.2-.09-.35-.21-.43-.17-.09.04-.13.21-.24.41-.16-.38-.31-.74-.47-1.1l.06-.06Z"/>
      <path class="cls-2" d="m44.37,33.57c.22.19.43.3.57-.09.03.01.06.02.09.03.05.34.1.68.15,1-.24.02-.43.04-.72.07-.04-.27-.1-.62-.16-.97l.06-.05Z"/>
      <path class="cls-2" d="m48.82,37.1c-1.18.27-2.31.52-3.47.78.23-.37,3.03-1,3.47-.78Z"/>
      <path class="cls-2" d="m42.12,44.19c-.25.04-.44.07-.72.11-.05-.27-.11-.59-.17-.92.3.17.5.16.63-.21.03.02.06.05.09.07.06.33.12.65.17.95Z"/>
      <path class="cls-2" d="m46.67,42.3c-.57-.08-1.14-.16-1.71-.26-.08-.01-.15-.12-.23-.18.09-.03.19-.1.28-.09.61.06,1.21.13,1.81.21.09.01.18.09.26.13-.09.06-.18.12-.28.16-.04.02-.09,0-.13,0,0,0,0,.01,0,.02Z"/>
      <path class="cls-2" d="m41.19,35.17c-.05-.26-.1-.57-.18-.98.31.21.52.23.73-.06.06.32.12.65.17.95-.25.03-.44.05-.72.09Z"/>
      <path class="cls-2" d="m42.38,39.94c.31-1.02,1.15-1.39,1.95-1.8l.08.07c-.07.08-.13.18-.21.23-.58.34-1.17.68-1.51,1.31-.05.09-.21.13-.32.19Z"/>
      <path class="cls-2" d="m25.86,43.56c-.21-.09-.36-.21-.43-.18-.1.04-.15.21-.26.37-.13-.34-.26-.68-.39-1.02.02-.02.03-.05.05-.07.29.2.48.13.66-.18.12.34.24.68.38,1.07Z"/>
      <path class="cls-2" d="m41.87,47.98c.26.21.44.23.61-.08.03.01.06.02.09.03.02.33.05.65.07.94-.27.02-.46.03-.72.05-.02-.29-.03-.61-.05-.94Z"/>
      <path class="cls-2" d="m23.47,37.63c.26.4.41.2.63-.04.08.35.17.7.25,1.05-.41-.28-.47-.26-.72.17-.08-.36-.16-.72-.25-1.08.03-.03.06-.06.08-.09Z"/>
      <path class="cls-2" d="m30.14,52.87c-.24-.09-.39-.2-.46-.16-.1.05-.13.22-.23.41-.19-.33-.37-.65-.55-.96.02-.02.03-.05.05-.07.3.15.51.14.59-.27.19.33.38.66.6,1.06Z"/>
      <path class="cls-2" d="m26.64,47.45c.43.2.48.18.68-.22.15.33.29.66.46,1.04-.21-.06-.36-.16-.45-.12-.09.03-.12.21-.19.36-.24-.29-.34-.64-.49-1.06Z"/>
      <path class="cls-2" d="m32.56,50.11c.48.11.49.11.67-.33.16.38.29.68.4.94-.23.1-.4.18-.65.29-.11-.24-.26-.54-.43-.9Z"/>
      <path class="cls-2" d="m29.29,41.64c.32.11.51.06.69-.25.11.3.22.6.32.88-.23.07-.42.14-.69.22-.09-.24-.2-.55-.31-.85Z"/>
      <path class="cls-2" d="m30.93,45.84c.3.24.44.12.52-.19.03,0,.06,0,.08,0,.12.3.25.59.36.87-.24.09-.43.16-.69.26-.1-.24-.22-.55-.34-.85.02-.03.04-.06.06-.09Z"/>
      <path class="cls-2" d="m27.89,37.24c.25.19.44.15.54-.17.03,0,.06,0,.09.01.1.3.21.61.3.89-.24.07-.42.12-.69.19-.09-.24-.2-.54-.31-.85.02-.02.04-.05.06-.07Z"/>
      <path class="cls-2" d="m44.76,37.19c-.05-.41-.09-.74-.13-1.14.29.2.52.29.66-.1.02.02.05.03.07.05.04.34.08.69.13,1.11-.41-.38-.45-.37-.73.08Z"/>
      <path class="cls-2" d="m32.75,57.07c-.47-.06-.52-.02-.58.44l-.61-.89c.34.06.55.02.52-.39.03,0,.06,0,.08,0,.2.28.4.56.59.85Z"/>
      <path class="cls-2" d="m44.83,32.18c-.38-.25-.44-.24-.73.11-.05-.32-.1-.63-.17-1.07.32.28.53.3.63-.12.03.03.06.05.09.08.06.33.11.67.17,1Z"/>
      <path class="cls-2" d="m41.32,31.88c.07.33.13.66.2.99-.36-.27-.46-.25-.72.11-.06-.32-.12-.63-.18-.95.02-.02.04-.04.06-.06.24.21.45.27.55-.12.03,0,.07.02.1.03Z"/>
      <path class="cls-2" d="m41.57,37.54c-.04-.27-.09-.59-.14-.91.28.18.48.18.65-.12.03.01.05.02.08.04.05.32.09.64.15,1.01-.17-.1-.28-.22-.4-.22-.1,0-.2.12-.33.21Z"/>
      <path class="cls-2" d="m42.35,45.65c.03.32.07.65.11,1.05-.37-.36-.4-.36-.72.06-.04-.39-.08-.71-.12-1.04.28.19.48.24.62-.12.03.01.07.03.1.04Z"/>
      <path class="cls-2" d="m42.02,50.39c.25.32.44.12.66-.08v1.05c-.13-.1-.23-.23-.33-.23-.1,0-.2.11-.34.2v-.94Z"/>
      <path class="cls-2" d="m34.24,52.01c.13.29.26.57.43.95-.46-.23-.51-.2-.68.22-.14-.29-.29-.57-.43-.86.02-.03.04-.05.05-.08.26.1.49.14.51-.26.04,0,.08.02.11.02Z"/>
      <path class="cls-2" d="m29.27,39.34c.1.3.21.59.31.89-.43-.22-.49-.21-.69.2-.11-.29-.22-.58-.33-.87l.05-.07c.26.17.46.19.56-.17.03,0,.07.02.1.03Z"/>
      <path class="cls-2" d="m31.81,48.05c.24.14.43.14.49-.2.03,0,.06,0,.09-.01.13.29.25.57.38.86-.44-.15-.48-.14-.63.38-.16-.38-.28-.67-.41-.97.03-.02.05-.04.08-.06Z"/>
      <path class="cls-2" d="m41,40.94c.21.4.41.35.66.08.03.37.05.66.08,1.08-.32-.39-.53-.38-.74-.01v-1.14Z"/>
      <path class="cls-2" d="m30.78,43.62c.11.29.22.58.35.92-.48-.21-.51-.2-.67.29-.14-.37-.25-.66-.4-1.05.36.19.54.11.63-.19.03.01.06.02.09.04Z"/>
      <path class="cls-2" d="m36.2,57.16c-.16-.26-.32-.52-.54-.88.39.13.58.07.6-.28h.08c.16.26.32.52.48.79l-.03.08c-.35-.2-.5-.08-.49.3-.04,0-.07,0-.11,0Z"/>
      <path class="cls-2" d="m27.23,35.14c.27.2.46.17.64-.15.1.3.2.6.31.94-.18-.07-.31-.16-.43-.14-.09.01-.15.16-.28.31-.1-.31-.19-.6-.29-.9.02-.02.03-.04.05-.06Z"/>
      <path class="cls-2" d="m42.93,39.52c.4-.31.79-.62,1.23-.96.08.67-.39,1.06-1.16,1.07l-.07-.1Z"/>
      <path class="cls-2" d="m38.89,52.94c-.29.04-.57.16-.72.07-.16-.09-.21-.39-.27-.63.31.17.52.19.55-.25.03,0,.06.02.09.03.11.24.21.47.36.79Z"/>
      <path class="cls-2" d="m42.05,52.86c.21-.07.37-.12.61-.19-.03.34-.05.68-.08,1.03-.52-.16-.56-.49-.53-.84Z"/>
      <path class="cls-2" d="m35.66,54.77c-.25.13-.42.22-.67.36-.07-.19-.16-.41-.24-.63.18-.07.4-.22.54-.17.16.06.26.3.37.44Z"/>
      <path class="cls-2" d="m42.42,40.54c.13.05.27.09.39.17.26.19.51.39.74.6.07.06.09.17.13.25-.09,0-.2.02-.26-.02-.32-.21-.63-.44-.93-.68-.07-.05-.09-.15-.13-.23l.07-.09Z"/>
      <path class="cls-2" d="m44.27,39.13c.08-.23.13-.43.21-.6.03-.06.16-.09.24-.08.15.01.31.06.48.1.02.31-.23.51-.94.59Z"/>
      <path class="cls-2" d="m44.59,41.56c-.27-.12-.53-.17-.68-.32-.08-.07.02-.33.07-.52.19.28.37.37.61-.02v.86Z"/>
      <path class="cls-2" d="m41.03,30.45c-.27.06-.44.1-.69.16-.01-.12-.1-.39-.03-.43.16-.11.39-.17.58-.14.08.01.11.3.15.41Z"/>
      <path class="cls-2" d="m43.72,29.81c-.02-.11-.11-.36-.06-.39.18-.12.41-.17.67-.26.03.23.05.4.06.52-.24.05-.42.09-.67.14Z"/>
      <path class="cls-2" d="m23.75,35.38c.08.46-.07.6-.48.67-.07.01-.2-.06-.22-.12-.02-.07.03-.2.09-.24.18-.11.39-.2.61-.3Z"/>
      <path class="cls-2" d="m43.01,40.57c.25.01.5.02.83.04-.08.22-.13.37-.19.52-.24-.13-.47-.27-.71-.4.02-.06.04-.11.07-.17Z"/>
      <path class="cls-2" d="m42.2,39.09c-.19.24-.25.65-.74.46.1-.23.2-.46.3-.7.12.07.26.14.44.24Z"/>
      <path class="cls-2" d="m43.36,40.03c.27-.1.53-.21.81-.31.08.39.03.44-.28.44-.17,0-.34,0-.51,0,0-.04-.01-.08-.02-.13Z"/>
      <path class="cls-2" d="m31.3,32.82c-.23.08-.41.13-.63.21,0-.01-.06-.16-.05-.16.18-.08.36-.15.55-.2.04,0,.1.12.13.15Z"/>
      <path class="cls-2" d="m49.67,37.08c-.21.02-.42.03-.63.05,0-.05-.01-.1-.02-.14.21-.03.41-.06.62-.09,0,.06.02.12.03.19Z"/>
      <path class="cls-2" d="m46.01,46.18c-.07-.28-.14-.55-.22-.89.32.12.53.06.59-.27.04,0,.08.01.12.02.08.36.16.72.24,1.08-.03,0-.06,0-.09.01-.11-.08-.22-.23-.32-.23-.1,0-.2.16-.32.28Z"/>
      <path class="cls-2" d="m53.58,46.34c-.17-.19-.34-.39-.57-.66.35.03.53-.06.53-.46.24.26.42.45.59.64-.34.01-.54.1-.47.47-.03,0-.06,0-.08,0Z"/>
      <path class="cls-1" d="m34.52,25.51c.06-.44.13-.87.18-1.31.02-.14,0-.29,0-.43-.01-.3-.12-.46-.46-.46-.45,0-.7-.22-.74-.61-.04-.36.18-.72.52-.84.35-.12.75.03.94.37.29.51.33,1.07.24,1.62-.08.48-.23.95-.37,1.41-.03.11-.14.21-.21.31-.03-.02-.06-.05-.09-.07Z"/>
      <path class="cls-1" d="m32.19,21.85c-.51-.01-.92-.45-.91-.96.02-.5.46-.92.96-.91.51.01.93.45.92.95,0,.54-.43.93-.97.92Z"/>
    </g>
  </g>
</svg>